<svg width="610" height="611" viewBox="0 0 610 611" fill="none" xmlns="http://www.w3.org/2000/svg">
<path d="M484.776 198.946L483.967 198.866C420.083 191.79 288.003 234.127 189.404 293.248L188.932 293.534L188.717 293.033C156.247 217.199 150.504 150.647 173.723 119.361C183.767 105.815 199.033 99.7436 217.857 101.75C263.766 74.3189 315.791 67.9418 364.62 83.7632C390.61 92.2498 414.379 106.429 434.194 125.266C455.389 145.182 472.303 169.705 484.527 198.238L484.776 198.946ZM277.923 247.204C356.251 213.495 437.136 193.052 483.258 197.829C471.164 169.725 454.372 145.55 433.479 125.919C413.754 107.186 390.104 93.0808 364.246 84.6293C315.712 68.9158 263.841 75.296 218.219 102.687L218.079 102.747L217.915 102.72C199.054 100.661 184.472 106.425 174.466 119.898C151.527 150.87 157.236 216.829 189.376 292.155C217.875 275.248 247.455 260.232 277.923 247.204Z" fill="#02B377"/>
<path d="M320.088 76.449C287.943 72.8884 221.365 94.2534 171.675 124.017L171.187 123.203C221.02 93.3233 287.861 71.9279 320.193 75.5049L320.088 76.449Z" fill="#02B377"/>
<path d="M415.574 110.949C360.507 104.891 246.438 141.398 161.332 192.418L160.843 191.605C246.091 140.497 360.423 103.89 415.679 110.004L415.574 110.949Z" fill="#02B377"/>
<path d="M401.525 206.372L400.651 206.749C370.469 136.264 326.008 89.3047 281.696 81.1212C258.073 76.769 236.134 84.1365 218.321 102.601L217.589 101.962C235.669 83.3134 257.873 75.7903 281.828 80.2071C326.52 88.4067 371.219 135.596 401.525 206.372Z" fill="#02B377"/>
<path d="M295.742 240.254L294.867 240.631C252.367 141.391 224.489 90.9732 218.936 92.5609C218.392 92.7118 217.217 93.9644 218.452 102.199L217.505 102.344C216.489 95.5498 216.861 92.1404 218.676 91.6357C226.946 89.2935 263.343 164.584 295.742 240.254Z" fill="#02B377"/>
<path d="M126.869 413.521L126.06 413.44C106.064 411.219 94.2215 404.231 91.8135 393.237C89.5716 382.919 95.6569 369.557 108.816 354.478C97.3214 281.951 117.203 206.058 161.283 151.372C163.402 138.528 167.533 127.693 173.77 119.34C183.839 105.757 199.161 99.6884 218.078 101.78L219.52 101.919L218.301 102.651C196.879 115.602 177.906 132.225 162.251 151.758C156.532 186.92 165.975 237.266 189.685 292.616L189.851 293.001L189.477 293.162C153.632 314.644 126.319 335.966 109.883 354.613C113.051 374.587 118.661 394.096 126.586 412.702L126.869 413.521ZM108.994 355.631C96.3934 370.208 90.5807 383.079 92.7521 393.041C95.0225 403.457 106.291 410.139 125.363 412.399C117.666 394.196 112.171 375.138 108.994 355.631ZM160.999 153.251C117.944 207.426 98.484 282.115 109.625 353.563C126.119 334.988 153.216 313.869 188.504 292.668C165.276 238.147 155.812 188.46 160.999 153.251ZM191.804 105.952C184.881 108.983 178.902 113.82 174.491 119.956C168.658 127.832 164.695 137.999 162.529 149.993C177.718 131.274 195.961 115.256 216.488 102.616C208.093 101.646 199.59 102.8 191.757 105.972L191.804 105.952Z" fill="#02B377"/>
<path d="M139.582 184.674C129.407 183.522 123.336 179.954 122.107 174.302C119.536 162.48 138.335 142.9 171.187 123.203L171.675 124.016C139.198 143.524 120.535 162.617 123.04 174.094C124.181 179.314 129.941 182.642 139.635 183.738L139.582 184.674Z" fill="#02B377"/>
<path d="M106.615 296.19C89.3099 294.276 79.0745 288.228 76.9689 278.708C72.5843 258.624 104.723 225.283 160.82 191.615L161.308 192.428C105.584 225.839 73.6052 258.779 77.8675 278.515C79.8557 287.601 89.8039 293.4 106.669 295.254L106.615 296.19Z" fill="#02B377"/>
<path d="M115.101 348.551L114.226 348.928C89.2276 290.551 88.9673 229.478 113.502 181.393C134.34 140.623 171.389 112.331 217.871 101.813L218.091 102.742C171.886 113.196 135.038 141.249 114.348 181.817C89.9315 229.63 90.213 290.431 115.101 348.551Z" fill="#02B377"/>
<path d="M92.4999 391.684L91.6249 392.06C68.9646 339.148 68.6978 280.373 90.9208 226.563C114.327 169.783 159.432 125.511 217.857 101.847L218.234 102.722C159.861 126.252 115.058 170.422 91.7368 226.917C69.6652 280.469 69.9249 338.97 92.4999 391.684Z" fill="#02B377"/>
<path d="M332.204 364.146C253.41 398.056 172.068 418.529 126.06 413.44L125.783 413.407L125.673 413.15C77.5641 300.783 118.862 161.139 217.731 101.873L217.882 101.808L218.041 101.823C282.111 108.914 373.342 206.043 421.421 318.34L421.587 318.725L421.213 318.886C392.574 335.919 362.84 351.039 332.204 364.146ZM126.437 412.517C190.256 419.441 321.959 377.225 420.37 318.309C372.414 206.553 281.761 109.964 218.089 102.77C119.785 161.806 78.703 300.666 126.437 412.517Z" fill="#02B377"/>
<path d="M243.689 159.782C203.907 176.903 162.858 187.226 139.628 184.654L139.728 183.698C171.874 187.259 238.45 165.922 288.141 136.131L288.629 136.944C274.171 145.543 259.158 153.173 243.689 159.782Z" fill="#02B377"/>
<path d="M284.64 253.687C216.602 282.968 146.362 300.641 106.617 296.258L106.717 295.302C161.804 301.407 275.858 264.864 360.96 213.833L361.453 214.658C336.736 229.344 311.076 242.382 284.64 253.687Z" fill="#02B377"/>
<path d="M209.547 404.571L208.672 404.947C160.53 292.663 164.567 156.721 217.589 101.962L218.274 102.621C165.505 157.133 161.529 292.607 209.547 404.571Z" fill="#02B377"/>
<path d="M315.272 370.714L314.397 371.091C266.357 258.915 222.894 138.353 217.505 102.344L218.452 102.199C223.827 138.145 267.257 258.597 315.272 370.714Z" fill="#02B377"/>
<path d="M420.752 319.195L420.536 318.694C372.578 206.676 281.681 109.777 217.926 102.744L216.483 102.604L217.696 101.889C263.575 74.3875 315.731 67.9952 364.513 83.74C390.503 92.2266 414.272 106.405 434.087 125.243C455.207 145.08 472.107 169.54 484.309 197.958C504.138 200.209 515.926 207.166 518.279 218.128C523.354 241.358 486.145 279.978 421.188 318.925L420.752 319.195ZM219.442 101.994C283.334 110.31 373.415 206.565 421.205 317.839C485.512 279.213 522.32 241.139 517.401 218.367C515.093 207.801 503.543 201.074 483.987 198.912L483.71 198.879L483.6 198.623C471.385 170.238 454.581 145.778 433.5 125.966C413.774 107.232 390.124 93.1275 364.266 84.676C316.143 69.0486 264.762 75.2179 219.442 101.994Z" fill="#02B377"/>
<path d="M288.583 136.964L288.094 136.151C320.572 116.643 339.235 97.5499 336.729 86.0732C335.594 80.865 329.846 77.5316 320.135 76.4288L320.24 75.4847C330.415 76.6368 336.48 80.1932 337.715 85.8566C340.204 97.7136 321.435 117.267 288.583 136.964Z" fill="#02B377"/>
<path d="M361.463 214.584L360.97 213.759C416.717 180.338 448.681 147.363 444.387 127.682C442.399 118.596 432.456 112.809 415.586 110.943L415.691 109.999C432.996 111.913 443.232 117.961 445.338 127.481C449.687 147.58 417.512 180.964 361.463 214.584Z" fill="#02B377"/>
<path d="M495.902 262.422L495.027 262.799C447.094 150.839 322.864 79.0429 218.091 102.742L217.871 101.813C323.07 78.0136 447.798 150.066 495.902 262.422Z" fill="#02B377"/>
<path d="M518.518 219.325L517.643 219.701C469.73 107.789 335.381 55.3077 218.161 102.712L217.784 101.837C335.499 54.2335 470.399 106.934 518.518 219.325Z" fill="#02B377"/>
<path d="M392.25 509.553L392.092 509.539C328.033 502.442 236.79 405.319 188.716 293.033L188.551 292.648L188.936 292.482C287.677 233.272 420.09 190.875 484.087 197.956L484.364 197.989L484.475 198.246C532.579 310.602 491.281 450.246 392.412 509.511L392.25 509.553ZM189.757 293.041C237.72 404.78 328.361 501.374 392.033 508.568C490.333 449.52 531.398 310.654 483.69 198.833C419.837 191.924 288.193 234.183 189.757 293.041Z" fill="#02B377"/>
<path d="M503.407 316.104C448.325 310.011 334.271 346.554 249.165 397.573L248.676 396.76C333.936 345.647 448.255 309.046 503.524 315.155L503.407 316.104Z" fill="#02B377"/>
<path d="M470.441 427.62C438.295 424.059 371.719 445.396 322.028 475.187L321.54 474.374C371.373 444.494 438.226 423.094 470.546 426.676L470.441 427.62Z" fill="#02B377"/>
<path d="M392.487 509.396L391.802 508.737C444.63 454.2 448.594 318.732 400.65 206.749L401.525 206.372C449.609 318.682 445.556 454.617 392.487 509.396Z" fill="#02B377"/>
<path d="M392.618 508.994L391.683 509.134C386.295 473.193 342.866 352.742 294.867 240.631L295.742 240.254C343.771 352.435 387.229 472.985 392.618 508.994Z" fill="#02B377"/>
<path d="M369.209 521.364C329.391 538.499 286.321 540.815 245.554 527.566C219.564 519.08 195.796 504.901 175.98 486.064C154.866 466.238 137.977 441.773 125.763 413.36C105.934 411.109 94.1463 404.152 91.7934 393.191C86.7303 369.955 123.934 331.324 188.896 292.389L189.356 292.108L189.571 292.609C237.525 404.615 328.423 501.486 392.177 508.548L393.62 508.687L392.407 509.403C384.951 513.905 377.2 517.901 369.209 521.364ZM188.917 293.499C124.61 332.125 87.803 370.199 92.7219 392.971C95.0293 403.537 106.58 410.264 126.135 412.426L126.412 412.459L126.523 412.716C138.738 441.1 155.542 465.56 176.63 485.355C196.344 504.095 219.987 518.203 245.84 526.655C293.955 542.231 345.301 536.077 390.677 509.304C326.8 501.023 236.718 404.797 188.917 293.499Z" fill="#02B377"/>
<path d="M194.475 501.279C177.186 499.372 166.934 493.317 164.833 483.809C160.449 463.725 192.599 430.379 248.685 396.715L249.173 397.528C193.425 430.95 161.466 463.937 165.767 483.601C167.743 492.692 177.703 498.485 194.557 500.344L194.475 501.279Z" fill="#02B377"/>
<path d="M289.941 535.828C279.766 534.676 273.7 531.12 272.459 525.473C269.883 513.64 288.687 494.071 321.54 474.374L322.028 475.187C289.551 494.695 270.913 513.847 273.393 525.265C274.533 530.485 280.289 533.802 289.988 534.909L289.941 535.828Z" fill="#02B377"/>
<path d="M392.252 509.525C287.08 533.326 162.325 461.272 114.226 348.928L115.101 348.551C163.029 460.499 287.259 532.295 392.044 508.591L392.252 509.525Z" fill="#02B377"/>
<path d="M392.327 509.507C274.624 557.105 139.724 504.405 91.61 392.025L92.4849 391.649C140.398 503.561 274.742 556.031 391.974 508.622L392.327 509.507Z" fill="#02B377"/>
<path d="M418.73 506.15C410.349 509.566 401.223 510.739 392.25 509.553C384.841 513.999 377.144 517.945 369.209 521.364C329.391 538.499 286.321 540.815 245.554 527.567C219.564 519.08 195.796 504.901 175.98 486.064C154.786 466.148 137.872 441.625 125.653 413.104L125.331 412.357L126.129 412.443C190.012 419.518 322.104 377.176 420.704 318.055L421.163 317.774L421.379 318.275C453.848 394.109 459.599 460.645 436.38 491.931C431.873 498.163 425.778 503.073 418.73 506.15ZM392.034 508.568L392.197 508.594C411.059 510.654 425.641 504.89 435.647 491.417C458.608 460.463 452.898 394.504 420.752 319.195C322.472 378 191.074 420.153 126.869 413.52C138.964 441.625 155.751 465.788 176.655 485.414C196.369 504.153 220.012 518.262 245.865 526.714C294.399 542.427 346.281 536.042 391.904 508.652L392.034 508.568Z" fill="#02B377"/>
<path d="M372.448 458.785C304.41 488.065 234.169 505.738 194.42 501.344L194.525 500.4C249.612 506.504 363.666 469.962 448.779 418.925L449.272 419.75C424.551 434.438 398.887 447.478 372.448 458.785Z" fill="#02B377"/>
<path d="M394.042 510.953C354.259 528.074 313.211 538.397 289.976 535.813L290.081 534.869C322.227 538.43 388.803 517.093 438.482 487.307L438.97 488.12C424.516 496.717 409.507 504.345 394.042 510.953Z" fill="#02B377"/>
<path d="M367.536 527.02C355.152 532.31 341.462 533.749 328.248 531.151C283.638 522.916 238.909 475.754 208.614 404.972L209.547 404.571C239.717 475.061 284.19 522.015 328.485 530.192C352.108 534.544 374.022 527.118 391.86 508.712L392.545 509.371C385.462 516.855 376.961 522.854 367.536 527.02Z" fill="#02B377"/>
<path d="M391.65 519.629L391.463 519.709C383.182 522.056 346.796 446.761 314.402 371.103L315.277 370.726C357.766 469.971 385.651 520.372 391.197 518.801C391.71 518.58 392.911 517.386 391.688 509.146L392.623 509.006C393.592 515.53 393.295 518.921 391.65 519.629Z" fill="#02B377"/>
<path d="M418.73 506.15C411.007 509.473 402.048 510.633 392.092 509.538L390.649 509.399L391.857 508.672C413.279 495.715 432.255 479.091 447.918 459.56C453.625 424.403 444.182 374.058 420.489 318.714L420.334 318.352L420.719 318.186C456.552 296.709 483.877 275.381 500.301 256.74C497.133 236.766 491.523 217.257 483.598 198.651L483.277 197.904L484.086 197.985C504.075 200.126 515.883 207.129 518.314 218.112C520.568 228.426 514.482 241.788 501.318 256.855C512.833 329.332 492.931 405.275 448.839 459.966C446.72 472.81 442.589 483.645 436.411 491.973C431.891 498.194 425.785 503.089 418.73 506.15ZM393.576 508.747C411.722 510.396 425.848 504.538 435.611 491.432C441.445 483.556 445.419 473.384 447.599 461.453C432.39 480.137 414.138 496.121 393.611 508.732L393.576 508.747ZM421.542 318.717C444.816 373.218 454.287 422.888 449.1 458.097C492.155 403.922 511.608 329.25 500.468 257.802C484.008 276.362 456.912 297.481 421.577 318.702L421.542 318.717ZM484.769 198.963C492.461 217.164 497.951 236.219 501.122 255.723C513.722 241.147 519.547 228.27 517.364 218.314C515.11 207.904 503.836 201.21 484.781 198.958L484.769 198.963Z" fill="#02B377"/>
<path d="M449.296 419.74L448.803 418.915C504.539 385.499 536.502 352.524 532.208 332.843C530.22 323.757 520.277 317.97 503.407 316.104L503.524 315.155C520.818 317.074 531.065 323.117 533.17 332.637C537.52 352.736 505.392 386.1 449.296 419.74Z" fill="#02B377"/>
<path d="M438.935 488.135L438.447 487.322C470.936 467.809 489.588 448.721 487.082 437.244C485.947 432.036 480.198 428.702 470.487 427.6L470.593 426.656C480.767 427.808 486.833 431.364 488.067 437.027C490.604 448.864 471.788 468.438 438.935 488.135Z" fill="#02B377"/>
<path d="M421.514 500.057C412.071 504.104 402.276 507.273 392.252 509.525L392.044 508.591C438.253 498.149 475.096 470.084 495.786 429.516C520.193 381.68 519.93 320.954 495.027 262.799L495.902 262.422C520.9 320.799 521.172 381.867 496.62 429.945C480.636 461.442 454.034 486.275 421.514 500.057Z" fill="#02B377"/>
<path d="M397.328 507.409C395.672 508.122 394.015 508.835 392.347 509.553L391.97 508.678C450.196 485.128 495.081 441.019 518.394 384.473C540.454 330.926 540.194 272.425 517.64 219.758L518.515 219.381C541.175 272.294 541.437 331.056 519.272 384.841C496.549 439.932 453.35 483.3 397.328 507.409Z" fill="#02B377"/>
<path d="M396.54 517.594C391.757 519.652 387.593 521.223 385.418 522.048C382.301 523.224 375.047 525.709 370.049 527.141C365.052 528.573 365.122 528.543 358.005 530.319C356.671 530.658 355.076 530.999 353.515 531.325L351.476 531.76C342.135 533.669 332.686 535.007 323.182 535.765C317.614 536.129 311.005 536.387 306.319 536.454C302.368 536.495 297.13 536.371 293.308 536.135C287.396 535.762 279.832 535.021 274.567 534.356C269.303 533.69 263.246 532.66 259.101 531.734C247.37 529.329 235.841 526.03 224.614 521.866C219.278 519.876 213.12 517.327 208.903 515.367C203.876 513.037 196.665 509.42 191.27 506.363C180.513 500.277 170.256 493.345 160.598 485.632C151.462 478 142.768 469.854 134.557 461.234C130.029 456.386 125.766 451.297 121.788 445.988C119.495 443.007 116.928 439.258 114.45 435.651C113.331 434.017 112.255 432.448 111.251 431.013C107.471 425.414 104.058 419.576 101.033 413.536L100.573 412.628C97.1086 406.103 93.9966 399.397 91.2503 392.539C90.7446 391.139 90.1719 389.616 89.5792 388.046C87.9601 383.737 86.1299 378.842 84.8848 374.856C82.7757 368.401 81.0211 361.835 79.6287 355.189C79.4066 353.901 79.1042 352.428 78.8251 350.944C77.9461 346.427 76.9645 341.319 76.4197 337.226C75.5863 330.92 74.827 322.826 74.5482 317.069C74.2694 311.313 74.1954 304.265 74.3679 299.172C74.4939 295.384 74.9115 285.816 75.8946 278.59C77.3971 267.462 80.4527 253.261 82.6058 244.48C83.7829 239.826 85.7888 234.012 87.5822 228.926C88.2468 227.258 88.7597 225.654 89.226 224.071C91.1095 218.797 93.2802 213.63 95.7284 208.593C98.9254 201.949 103.585 193.404 106.81 187.563C109.864 182.19 113.231 177.001 116.895 172.024C121.567 165.658 128.23 157.301 133.464 151.246C136.554 147.662 141.463 142.618 146.6 137.753C150.572 133.969 155.92 129.303 159.884 126.146C166.322 120.922 173.036 116.048 179.997 111.545C183.664 109.109 191.14 104.633 196.812 101.653C200.842 99.5457 204.023 97.9416 206.284 96.8993C212.584 93.9947 213.209 93.7119 220.074 90.9649C220.972 90.5783 229.213 87.2672 240.079 84.0839C246.462 82.2081 251.905 80.9441 252.136 80.9004C254.188 80.432 257.087 79.7789 259.286 79.3304C260.903 79.0077 262.904 78.6445 264.77 78.3532L267 77.9463C269.398 77.5091 272.771 77.0254 277.011 76.5003C279.354 76.225 282.615 75.8999 286.961 75.5231C292.594 75.021 299.226 74.7525 303.852 74.8356C307.279 74.8955 311.1 75.0348 314.906 75.2359C319.994 75.3417 325.078 75.6748 330.159 76.2353L330.481 76.2765C338.404 77.1661 346.277 78.4624 354.068 80.1602C359.543 81.5095 367.807 83.5533 373.801 85.3704C376.044 86.0508 383.814 88.459 389.66 90.9901L390.759 91.4571C396.129 93.7504 402.816 96.5971 407.848 99.0361C412.209 101.169 418.328 104.495 423.077 107.305C427.825 110.115 434.464 114.489 439.536 118.017C444.949 121.855 450.18 125.881 453.526 128.838C457.582 132.416 463.719 137.808 468.017 142.042C471.264 145.25 475.846 150.177 480.273 155.227C487.477 163.533 494.051 172.365 499.939 181.649C506.505 192.257 512.327 203.306 517.365 214.719C519.775 220.318 522.66 228.051 524.605 233.92C525.949 237.974 527.341 243.168 528.568 247.756C528.949 249.154 529.31 250.506 529.648 251.743C531.268 258.261 532.552 264.857 533.494 271.506C534.295 276.582 535.04 283.645 535.439 289.488C535.838 295.331 536.061 303.047 535.952 309.51C535.901 313.182 535.586 317.59 535.295 321.863C535.165 323.745 535.033 325.558 534.938 327.202C534.331 333.993 533.356 340.746 532.015 347.431C531.372 351.012 530.354 355.267 529.373 359.381C528.954 361.137 528.556 362.816 528.212 364.36C526.439 371.261 524.287 378.059 521.765 384.723C519.837 390.074 517.341 396.195 515.421 400.312C512.613 406.318 508.393 414.536 504.679 421.265C502.133 425.886 498.381 431.594 496.377 434.585C494.014 438.091 490.732 442.545 488.076 446.108L487.269 447.189C481.944 454.255 476.13 460.939 469.868 467.19C464.501 472.487 460.369 476.38 457.26 479.115C453.354 482.538 447.882 486.981 443.62 490.184C439.175 493.48 433.903 497.228 430.14 499.635L429.627 499.953C427.755 501.16 425.417 502.636 423.586 503.714C420.277 505.664 415.974 508.069 413.297 509.525C413.063 509.626 407.511 512.692 399.225 516.411L396.54 517.594ZM213.851 94.7215C211.868 95.5751 210.106 96.3332 206.708 97.9476C204.458 98.985 201.288 100.584 197.282 102.681C191.645 105.647 184.187 110.101 180.544 112.526C173.622 117.018 166.941 121.868 160.526 127.058C156.548 130.153 151.256 134.851 147.29 138.617C142.188 143.468 137.282 148.455 134.232 152.035C129.01 158.085 122.372 166.404 117.707 172.753C114.057 177.677 110.704 182.813 107.665 188.136C104.44 193.976 99.7985 202.5 96.6081 209.127C94.1771 214.129 92.0235 219.261 90.1572 224.5L88.5018 229.36C86.71 234.418 84.6973 240.151 83.5536 244.819C81.4071 253.583 78.3799 267.786 76.8539 278.827C75.8841 286.02 75.4681 295.559 75.3437 299.319C75.1578 304.349 75.23 311.328 75.5022 317.101C75.7744 322.874 76.5319 330.9 77.3669 337.177C77.9133 341.243 78.8949 346.351 79.7639 350.844C80.0546 352.323 80.3303 353.767 80.5674 355.089C81.9572 361.701 83.7023 368.234 85.7951 374.658C87.0267 378.58 88.8469 383.452 90.461 387.749C91.0587 389.331 91.6314 390.854 92.1371 392.255C94.8704 399.076 97.9634 405.749 101.403 412.243L101.863 413.151C104.877 419.15 108.273 424.949 112.03 430.512C113.03 431.935 114.111 433.516 115.229 435.15C117.696 438.762 120.253 442.487 122.536 445.445C126.488 450.723 130.724 455.782 135.225 460.601C142.392 467.97 152.714 478.17 161.174 484.914C170.791 492.609 181.014 499.516 191.743 505.565C197.036 508.611 204.272 512.189 209.282 514.513C213.466 516.46 219.607 519.002 224.915 520.99C236.104 525.126 247.589 528.411 259.273 530.816C263.397 531.724 269.442 532.759 274.661 533.417C279.88 534.074 287.496 534.806 293.392 535.173C297.201 535.414 302.4 535.541 306.334 535.494C310.98 535.43 317.584 535.16 323.14 534.801C332.6 534.057 342.007 532.738 351.307 530.852L353.357 530.411C354.901 530.079 356.497 529.738 357.807 529.409C364.865 527.657 364.865 527.657 369.816 526.246C374.767 524.834 381.985 522.392 385.086 521.181C387.675 520.192 393.025 518.166 398.893 515.544C407.144 511.841 412.677 508.824 412.9 508.7C415.561 507.237 419.857 504.849 423.166 502.899C424.974 501.831 427.306 500.343 429.172 499.153L429.686 498.835C433.424 496.438 438.694 492.746 443.112 489.421C447.334 486.221 452.804 481.807 456.687 478.394C459.778 475.681 463.898 471.792 469.258 466.513C475.481 460.29 481.265 453.643 486.568 446.619L487.363 445.544C489.984 441.996 493.295 437.543 495.651 434.054C497.245 431.654 501.28 425.576 503.908 420.822C507.615 414.111 511.812 405.903 514.618 399.925C516.532 395.824 519.014 389.737 520.929 384.419C523.426 377.796 525.55 371.038 527.289 364.177C527.639 362.644 528.043 360.949 528.467 359.204C529.46 355.084 530.408 350.86 531.084 347.292C532.382 340.659 533.326 333.962 533.913 327.229C534.007 325.584 534.134 323.76 534.265 321.878C534.555 317.605 534.874 313.237 534.923 309.593C535.012 303.084 534.812 295.261 534.428 289.646C534.045 284.032 533.235 276.72 532.473 271.738C531.54 265.126 530.268 258.566 528.661 252.085C528.323 250.848 527.957 249.484 527.581 248.097C526.359 243.521 524.955 238.332 523.622 234.301C521.687 228.456 518.782 220.774 516.412 215.17C511.378 203.783 505.558 192.76 498.993 182.181C493.155 172.932 486.632 164.134 479.48 155.859C475.068 150.844 470.492 145.899 467.261 142.727C462.985 138.511 456.865 133.125 452.824 129.583C449.509 126.667 444.306 122.643 438.904 118.828C433.907 115.282 427.32 110.996 422.528 108.15C417.735 105.303 411.698 102.039 407.359 99.9241C402.367 97.4817 395.697 94.6416 390.344 92.3549L389.244 91.888C383.452 89.4168 375.732 87.0286 373.501 86.3432C367.528 84.5443 359.276 82.4955 353.818 81.1528C346.055 79.4696 338.213 78.1789 330.32 77.2857L330.032 77.2578C325.739 76.9207 320.328 76.5253 314.859 76.2516C281.601 75.5345 248.514 84.5331 218.339 102.58L218.245 102.62L217.757 101.807C241.283 87.4978 267.726 78.6651 295.128 75.9628C292.413 76.0802 289.604 76.2662 287.054 76.4785C282.709 76.8553 279.459 77.1754 277.133 77.4574C272.904 77.9774 269.559 78.4627 267.174 78.8949L264.943 79.3019C263.109 79.6348 261.091 79.9914 259.471 80.274C257.278 80.7059 254.403 81.349 252.355 81.829C252.134 81.9244 246.706 83.1266 240.346 84.9924C229.531 88.1672 221.331 91.4749 220.427 91.8499C217.316 93.2304 215.542 93.9936 213.851 94.7215Z" fill="#02B377"/>
<path d="M484.776 198.946L483.967 198.866C420.083 191.791 288.003 234.127 189.404 293.249L188.933 293.535L188.717 293.033C156.247 217.199 150.504 150.647 173.723 119.361C183.767 105.815 199.033 99.7437 217.857 101.75C263.766 74.319 315.791 67.9419 364.62 83.7634C390.61 92.25 414.379 106.429 434.194 125.266C455.389 145.182 472.303 169.705 484.527 198.238L484.776 198.946ZM277.923 247.204C356.251 213.495 437.136 193.052 483.259 197.829C471.164 169.725 454.372 145.55 433.48 125.919C413.754 107.186 390.104 93.0809 364.246 84.6295C315.712 68.9159 263.841 75.2962 218.219 102.687L218.079 102.747L217.916 102.721C199.054 100.661 184.472 106.425 174.466 119.898C151.527 150.87 157.236 216.829 189.376 292.155C217.875 275.248 247.455 260.232 277.923 247.204Z" fill="#02B377"/>
<path d="M320.088 76.4491C287.943 72.8885 221.365 94.2535 171.675 124.017L171.187 123.204C221.02 93.3234 287.861 71.928 320.193 75.505L320.088 76.4491Z" fill="#02B377"/>
<path d="M415.574 110.949C360.507 104.891 246.438 141.398 161.332 192.418L160.843 191.605C246.091 140.497 360.423 103.891 415.679 110.005L415.574 110.949Z" fill="#02B377"/>
<path d="M401.525 206.373L400.65 206.749C370.469 136.264 326.008 89.3048 281.696 81.1213C258.073 76.7691 236.134 84.1366 218.321 102.602L217.589 101.962C235.669 83.3135 257.873 75.7904 281.828 80.2072C326.52 88.4068 371.219 135.596 401.525 206.373Z" fill="#02B377"/>
<path d="M295.742 240.254L294.867 240.631C252.367 141.391 224.489 90.9734 218.936 92.561C218.392 92.7119 217.217 93.9645 218.452 102.199L217.505 102.344C216.489 95.5499 216.861 92.1405 218.676 91.6358C226.946 89.2936 263.343 164.584 295.742 240.254Z" fill="#02B377"/>
<path d="M126.869 413.521L126.06 413.44C106.064 411.219 94.2215 404.231 91.8135 393.237C89.5716 382.919 95.657 369.557 108.816 354.478C97.3214 281.952 117.203 206.058 161.283 151.373C163.402 138.528 167.533 127.693 173.77 119.341C183.839 105.757 199.161 99.6885 218.078 101.78L219.52 101.919L218.301 102.652C196.879 115.602 177.906 132.225 162.251 151.758C156.532 186.92 165.975 237.266 189.685 292.616L189.851 293.001L189.477 293.162C153.632 314.644 126.319 335.967 109.883 354.613C113.052 374.587 118.661 394.096 126.586 412.702L126.869 413.521ZM108.994 355.632C96.3934 370.208 90.5808 383.08 92.7521 393.041C95.0225 403.457 106.291 410.14 125.363 412.399C117.666 394.196 112.171 375.138 108.994 355.632ZM160.999 153.251C117.944 207.426 98.484 282.115 109.625 353.563C126.119 334.988 153.216 313.869 188.504 292.668C165.276 238.147 155.812 188.461 160.999 153.251ZM191.804 105.952C184.881 108.983 178.902 113.82 174.491 119.956C168.658 127.832 164.695 137.999 162.529 149.993C177.718 131.274 195.961 115.256 216.488 102.616C208.093 101.646 199.59 102.8 191.757 105.972L191.804 105.952Z" fill="#02B377"/>
<path d="M139.582 184.674C129.407 183.522 123.336 179.954 122.107 174.302C119.536 162.481 138.335 142.9 171.187 123.203L171.675 124.017C139.198 143.524 120.535 162.617 123.04 174.094C124.181 179.314 129.941 182.642 139.635 183.739L139.582 184.674Z" fill="#02B377"/>
<path d="M106.615 296.19C89.3099 294.276 79.0744 288.228 76.9688 278.709C72.5842 258.624 104.722 225.284 160.82 191.615L161.308 192.428C105.584 225.839 73.6051 258.78 77.8674 278.515C79.8557 287.601 89.8039 293.4 106.669 295.254L106.615 296.19Z" fill="#02B377"/>
<path d="M115.101 348.551L114.226 348.928C89.2276 290.551 88.9673 229.478 113.502 181.393C134.34 140.623 171.389 112.331 217.871 101.813L218.091 102.742C171.886 113.196 135.038 141.249 114.348 181.817C89.9315 229.63 90.213 290.431 115.101 348.551Z" fill="#02B377"/>
<path d="M92.4999 391.684L91.6249 392.06C68.9647 339.148 68.6979 280.374 90.9209 226.563C114.327 169.783 159.432 125.511 217.857 101.847L218.234 102.722C159.861 126.252 115.058 170.422 91.7369 226.917C69.6653 280.469 69.925 338.97 92.4999 391.684Z" fill="#02B377"/>
<path d="M332.204 364.146C253.41 398.056 172.068 418.529 126.06 413.44L125.783 413.407L125.673 413.151C77.5641 300.783 118.862 161.139 217.731 101.874L217.882 101.808L218.041 101.823C282.111 108.915 373.342 206.043 421.421 318.341L421.587 318.726L421.213 318.886C392.574 335.919 362.84 351.039 332.204 364.146ZM126.437 412.517C190.256 419.441 321.959 377.225 420.37 318.309C372.414 206.553 281.761 109.964 218.089 102.77C119.785 161.806 78.703 300.666 126.437 412.517Z" fill="#02B377"/>
<path d="M243.689 159.782C203.907 176.903 162.858 187.226 139.628 184.654L139.728 183.698C171.874 187.259 238.45 165.922 288.141 136.131L288.629 136.944C274.171 145.543 259.158 153.173 243.689 159.782Z" fill="#02B377"/>
<path d="M284.64 253.688C216.602 282.968 146.362 300.641 106.617 296.258L106.717 295.302C161.804 301.407 275.858 264.864 360.96 213.833L361.453 214.658C336.736 229.344 311.076 242.383 284.64 253.688Z" fill="#02B377"/>
<path d="M209.547 404.571L208.672 404.947C160.53 292.663 164.567 156.721 217.589 101.962L218.274 102.622C165.505 157.133 161.529 292.607 209.547 404.571Z" fill="#02B377"/>
<path d="M315.272 370.714L314.397 371.091C266.357 258.915 222.894 138.354 217.505 102.344L218.452 102.199C223.827 138.145 267.257 258.597 315.272 370.714Z" fill="#02B377"/>
<path d="M420.752 319.196L420.536 318.694C372.578 206.676 281.681 109.778 217.926 102.744L216.483 102.604L217.696 101.889C263.575 74.3877 315.731 67.9954 364.513 83.7402C390.503 92.2268 414.272 106.406 434.087 125.243C455.207 145.08 472.107 169.54 484.309 197.958C504.138 200.21 515.926 207.166 518.279 218.128C523.354 241.358 486.145 279.978 421.188 318.925L420.752 319.196ZM219.442 101.995C283.334 110.31 373.415 206.565 421.205 317.839C485.512 279.213 522.32 241.139 517.401 218.368C515.093 207.801 503.543 201.074 483.987 198.912L483.71 198.879L483.6 198.623C471.385 170.238 454.581 145.778 433.5 125.966C413.774 107.232 390.124 93.1276 364.266 84.6762C316.143 69.0487 264.762 75.2181 219.442 101.995Z" fill="#02B377"/>
<path d="M288.583 136.964L288.094 136.151C320.572 116.643 339.235 97.5502 336.729 86.0735C335.594 80.8653 329.846 77.5318 320.135 76.4291L320.24 75.485C330.415 76.6371 336.48 80.1935 337.715 85.8568C340.204 97.7138 321.435 117.267 288.583 136.964Z" fill="#02B377"/>
<path d="M361.463 214.584L360.97 213.76C416.718 180.338 448.681 147.363 444.387 127.682C442.399 118.596 432.456 112.809 415.586 110.944L415.691 109.999C432.997 111.913 443.232 117.961 445.338 127.481C449.687 147.58 417.512 180.964 361.463 214.584Z" fill="#02B377"/>
<path d="M495.902 262.422L495.027 262.799C447.094 150.839 322.863 79.043 218.091 102.742L217.871 101.813C323.07 78.0137 447.798 150.066 495.902 262.422Z" fill="#02B377"/>
<path d="M518.518 219.325L517.643 219.701C469.73 107.789 335.381 55.3078 218.161 102.712L217.784 101.837C335.499 54.2337 470.399 106.934 518.518 219.325Z" fill="#02B377"/>
<path d="M392.25 509.553L392.092 509.539C328.033 502.442 236.79 405.319 188.717 293.033L188.551 292.648L188.936 292.482C287.677 233.272 420.09 190.875 484.088 197.957L484.364 197.99L484.475 198.246C532.579 310.602 491.281 450.246 392.412 509.512L392.25 509.553ZM189.757 293.041C237.72 404.78 328.361 501.374 392.034 508.568C490.333 449.52 531.398 310.654 483.69 198.833C419.837 191.924 288.193 234.183 189.757 293.041Z" fill="#02B377"/>
<path d="M503.407 316.104C448.325 310.012 334.271 346.554 249.165 397.574L248.676 396.761C333.936 345.647 448.255 309.046 503.524 315.155L503.407 316.104Z" fill="#02B377"/>
<path d="M470.441 427.62C438.295 424.059 371.719 445.396 322.028 475.188L321.54 474.374C371.373 444.494 438.226 423.094 470.546 426.676L470.441 427.62Z" fill="#02B377"/>
<path d="M392.487 509.396L391.802 508.737C444.63 454.2 448.594 318.732 400.651 206.749L401.526 206.373C449.609 318.682 445.556 454.618 392.487 509.396Z" fill="#02B377"/>
<path d="M392.618 508.994L391.683 509.134C386.295 473.193 342.866 352.742 294.867 240.631L295.742 240.254C343.771 352.435 387.229 472.985 392.618 508.994Z" fill="#02B377"/>
<path d="M369.209 521.364C329.391 538.499 286.321 540.815 245.554 527.567C219.564 519.08 195.796 504.901 175.98 486.064C154.866 466.238 137.977 441.773 125.763 413.361C105.934 411.109 94.1463 404.152 91.7934 393.191C86.7303 369.955 123.934 331.324 188.896 292.389L189.356 292.108L189.571 292.61C237.525 404.615 328.423 501.486 392.177 508.548L393.62 508.687L392.407 509.403C384.951 513.905 377.2 517.901 369.209 521.364ZM188.917 293.499C124.61 332.125 87.803 370.199 92.7219 392.971C95.0293 403.537 106.58 410.264 126.135 412.426L126.412 412.459L126.523 412.716C138.738 441.1 155.542 465.56 176.63 485.356C196.344 504.095 219.987 518.204 245.84 526.656C293.955 542.231 345.301 536.077 390.677 509.304C326.8 501.023 236.718 404.797 188.917 293.499Z" fill="#02B377"/>
<path d="M194.475 501.279C177.186 499.372 166.934 493.317 164.833 483.809C160.449 463.725 192.599 430.379 248.685 396.716L249.173 397.529C193.425 430.95 161.466 463.937 165.767 483.601C167.744 492.692 177.703 498.485 194.557 500.345L194.475 501.279Z" fill="#02B377"/>
<path d="M289.941 535.829C279.766 534.676 273.7 531.12 272.459 525.473C269.883 513.64 288.687 494.071 321.54 474.375L322.028 475.188C289.551 494.695 270.913 513.847 273.393 525.265C274.533 530.485 280.289 533.802 289.988 534.91L289.941 535.829Z" fill="#02B377"/>
<path d="M392.252 509.525C287.08 533.326 162.325 461.272 114.226 348.928L115.101 348.551C163.029 460.499 287.259 532.295 392.044 508.592L392.252 509.525Z" fill="#02B377"/>
<path d="M392.327 509.507C274.623 557.105 139.724 504.405 91.6099 392.025L92.4849 391.649C140.398 503.561 274.742 556.031 391.974 508.622L392.327 509.507Z" fill="#02B377"/>
<path d="M418.73 506.15C410.349 509.566 401.223 510.739 392.25 509.553C384.842 513.999 377.144 517.945 369.209 521.364C329.391 538.499 286.321 540.815 245.554 527.567C219.564 519.08 195.796 504.901 175.98 486.064C154.786 466.148 137.872 441.625 125.653 413.104L125.331 412.357L126.129 412.443C190.012 419.518 322.104 377.176 420.704 318.055L421.163 317.774L421.379 318.276C453.848 394.109 459.599 460.645 436.38 491.931C431.873 498.163 425.778 503.073 418.73 506.15ZM392.034 508.568L392.197 508.595C411.059 510.654 425.641 504.89 435.647 491.417C458.608 460.463 452.899 394.504 420.752 319.195C322.473 378 191.074 420.153 126.869 413.521C138.964 441.625 155.751 465.788 176.655 485.414C196.369 504.153 220.012 518.262 245.865 526.714C294.399 542.428 346.281 536.042 391.904 508.652L392.034 508.568Z" fill="#02B377"/>
<path d="M372.448 458.785C304.41 488.065 234.169 505.738 194.42 501.344L194.525 500.4C249.612 506.504 363.666 469.962 448.779 418.925L449.272 419.75C424.551 434.438 398.887 447.478 372.448 458.785Z" fill="#02B377"/>
<path d="M394.042 510.953C354.259 528.074 313.211 538.397 289.976 535.814L290.081 534.869C322.227 538.43 388.803 517.093 438.482 487.307L438.97 488.12C424.516 496.717 409.507 504.345 394.042 510.953Z" fill="#02B377"/>
<path d="M367.536 527.02C355.152 532.31 341.462 533.749 328.248 531.151C283.638 522.917 238.909 475.754 208.614 404.973L209.547 404.571C239.717 475.061 284.19 522.015 328.485 530.192C352.108 534.544 374.022 527.118 391.86 508.712L392.545 509.371C385.462 516.855 376.961 522.854 367.536 527.02Z" fill="#02B377"/>
<path d="M391.65 519.629L391.463 519.709C383.182 522.057 346.796 446.761 314.402 371.103L315.277 370.726C357.766 469.971 385.651 520.372 391.197 518.801C391.71 518.58 392.911 517.386 391.688 509.146L392.623 509.006C393.592 515.53 393.295 518.921 391.65 519.629Z" fill="#02B377"/>
<path d="M418.73 506.15C411.007 509.473 402.048 510.633 392.092 509.539L390.649 509.399L391.857 508.672C413.279 495.715 432.255 479.091 447.918 459.56C453.625 424.403 444.182 374.058 420.489 318.714L420.334 318.352L420.719 318.187C456.552 296.709 483.877 275.382 500.301 256.74C497.133 236.766 491.523 217.257 483.598 198.651L483.277 197.904L484.086 197.985C504.075 200.126 515.883 207.129 518.314 218.113C520.568 228.426 514.482 241.788 501.318 256.856C512.833 329.332 492.931 405.276 448.839 459.966C446.721 472.81 442.589 483.645 436.411 491.973C431.891 498.194 425.785 503.089 418.73 506.15ZM393.576 508.748C411.722 510.396 425.849 504.538 435.612 491.432C441.445 483.557 445.419 473.384 447.599 461.454C432.39 480.138 414.138 496.122 393.611 508.732L393.576 508.748ZM421.542 318.717C444.816 373.218 454.287 422.888 449.1 458.098C492.155 403.923 511.609 329.25 500.468 257.802C484.009 276.362 456.912 297.481 421.577 318.702L421.542 318.717ZM484.769 198.963C492.461 217.164 497.951 236.22 501.122 255.724C513.723 241.147 519.547 228.27 517.364 218.314C515.11 207.904 503.836 201.211 484.781 198.958L484.769 198.963Z" fill="#02B377"/>
<path d="M449.296 419.74L448.802 418.916C504.539 385.499 536.502 352.524 532.208 332.843C530.22 323.757 520.277 317.97 503.407 316.105L503.524 315.155C520.818 317.074 531.065 323.117 533.17 332.637C537.52 352.736 505.392 386.1 449.296 419.74Z" fill="#02B377"/>
<path d="M438.935 488.135L438.447 487.322C470.936 467.809 489.588 448.721 487.082 437.244C485.947 432.036 480.198 428.703 470.487 427.6L470.593 426.656C480.767 427.808 486.833 431.364 488.067 437.028C490.603 448.865 471.788 468.438 438.935 488.135Z" fill="#02B377"/>
<path d="M421.514 500.057C412.071 504.104 402.276 507.273 392.252 509.525L392.044 508.591C438.253 498.149 475.096 470.084 495.786 429.516C520.193 381.68 519.93 320.954 495.027 262.799L495.902 262.422C520.9 320.799 521.172 381.867 496.62 429.945C480.636 461.442 454.034 486.275 421.514 500.057Z" fill="#02B377"/>
<path d="M397.328 507.409C395.672 508.122 394.015 508.835 392.347 509.553L391.97 508.678C450.196 485.128 495.081 441.02 518.394 384.473C540.454 330.926 540.194 272.425 517.64 219.758L518.515 219.381C541.175 272.294 541.437 331.057 519.272 384.842C496.549 439.932 453.35 483.3 397.328 507.409Z" fill="#02B377"/>
<path d="M396.26 517.714L394.674 518.397C391.755 519.584 388.024 521.065 385.4 522.07C379.735 524.231 373.25 526.192 370.142 527.129C365.516 528.525 358.679 530.182 358.224 530.281C352.667 531.538 348.696 532.431 343.793 533.214C340.898 533.685 337.597 534.207 335.093 534.525C331.803 534.945 328.056 535.396 325.211 535.597L323.676 535.691C320.282 535.934 316.057 536.204 312.876 536.301C307.285 536.481 303.102 536.497 300.072 536.363C295.442 536.144 286.672 535.686 280.037 535.016C274.246 534.411 268.375 533.619 264.583 532.776C263.195 532.475 261.653 532.17 260.043 531.867C256.242 531.098 252.31 530.315 249.093 529.459C246.207 528.696 236.166 525.993 228.287 523.203C224.144 521.737 217.523 519.235 212.503 516.985C208.032 514.982 199.635 511.115 193.557 507.661C182.54 501.608 172.037 494.664 162.153 486.898C152.938 479.381 144.178 471.322 135.921 462.763C131.303 457.868 126.95 452.73 122.881 447.371C120.569 444.439 117.993 440.736 115.501 437.162C114.366 435.521 113.272 433.974 112.241 432.509C108.401 426.911 104.924 421.074 101.829 415.032C98.6366 408.898 95.1436 401.649 92.9379 396.556C91.3112 392.776 89.5244 387.917 87.9553 383.629C87.3558 381.979 86.7748 380.403 86.2373 378.962C83.6435 371.81 81.5784 364.477 80.0588 357.022L79.3277 353.299C78.3784 348.62 77.3115 343.313 76.7131 339.063C75.8434 332.994 75.036 325.045 74.7004 319.285C74.3752 313.742 74.2293 306.56 74.3801 301.448C74.468 297.829 74.7611 288.646 75.6361 281.619C76.9574 270.873 79.7565 256.879 81.9285 247.371C83.5594 240.958 85.5113 234.631 87.777 228.414C90.1126 221.728 92.7959 215.169 95.8158 208.763C97.7428 204.823 104.538 191.182 110.975 181.111C114.113 176.194 118.989 169.048 123.259 163.74L123.994 162.815C126.353 159.878 129.299 156.218 131.679 153.521C134.058 150.824 138.706 145.658 142.393 142.08L143.762 140.73C145.419 139.118 147.282 137.28 148.846 135.901C152.22 132.914 157.84 127.883 162.202 124.526C169.949 118.418 178.07 112.8 186.515 107.702L186.76 108.109L186.515 107.702C191.594 104.659 197.251 101.547 201.654 99.3759C205.542 97.4539 206.988 96.7346 210.953 94.9592C214.918 93.1838 219.003 91.4949 220.146 91.0997C222.987 89.988 225.675 88.9417 229.685 87.5615C233.696 86.1812 235.816 85.5176 240.077 84.2371C243.758 83.1509 244.266 83.0151 251.908 81.1091C253.38 80.7383 255.165 80.357 256.749 80.0211L258.495 79.6432C262.614 78.7415 270.547 77.4154 275.119 76.8582C281.342 76.0884 289.421 75.3908 295.246 75.1102C300.124 74.8777 305.975 74.8206 310.16 74.9694C315.78 75.1777 323.846 75.7026 330.206 76.3118C332.715 76.6149 335.2 76.928 337.639 77.2612C340.411 77.6306 343.125 78.0251 345.465 78.4835C353.391 80.0643 362.767 82.2516 369.354 84.0628C379.167 86.7531 392.02 92.007 400.831 95.7094C407.615 98.6063 414.186 101.979 420.495 105.803L423.742 107.821C428.407 110.694 433.687 113.966 437.737 116.759C442.61 120.085 447.312 123.655 451.825 127.454L453.722 129.099C457.852 132.687 462.988 137.169 466.718 140.79C470.447 144.412 475.393 149.639 479.077 153.861C482.761 158.084 487.9 164.5 491.563 169.477C495.415 174.733 499.989 181.891 501.799 184.748C507.704 194.349 512.888 204.375 517.307 214.744C521.958 226.305 525.929 238.128 529.199 250.153C530.967 256.602 532.294 263.163 533.171 269.792C533.371 271.476 533.615 273.362 533.868 275.3C534.419 279.598 534.994 284.052 535.265 287.765C535.841 294.309 536.061 300.88 535.923 307.448C535.855 309.026 535.801 310.764 535.732 312.563C535.605 316.766 535.405 321.443 535.084 325.162C534.53 331.264 533.517 339.097 532.557 344.64C531.596 350.183 530.165 356.883 528.942 361.654C528.249 364.317 525.788 373.603 523.3 380.674C520.9 387.404 518.804 392.717 517.238 396.405C514.566 402.533 511.123 409.698 508.495 414.645C506.437 418.503 503.265 424.113 500.549 428.31C497 433.847 492.003 440.934 488.515 445.712C482.755 453.229 476.563 460.404 469.97 467.202C467.642 469.503 461.692 475.341 456.817 479.596C453.008 482.922 447.527 487.341 443.18 490.608C438.834 493.875 433.522 497.53 429.723 499.981C422.395 504.642 419.594 506.165 413.469 509.506C412.089 510.252 407.007 512.965 399.339 516.417L396.26 517.714ZM213.875 94.7113L211.273 95.8309C207.32 97.6013 205.885 98.3156 202.021 100.228C197.618 102.399 191.996 105.496 186.935 108.517C178.527 113.595 170.444 119.193 162.734 125.279C158.428 128.639 152.777 133.629 149.377 136.558C147.837 137.926 145.98 139.748 144.335 141.355L142.966 142.704C139.297 146.26 134.709 151.374 132.3 154.098C129.891 156.821 127.004 160.428 124.641 163.353L123.905 164.278C119.542 169.829 115.461 175.595 111.678 181.556C105.271 191.6 98.5005 205.202 96.5752 209.114C93.5682 215.483 90.902 222.007 88.5879 228.66C86.327 234.846 84.3805 241.143 82.7559 247.527C80.5855 257.006 77.8064 270.95 76.4867 281.667C75.62 288.65 75.3119 297.798 75.2356 301.412C75.1015 306.53 75.249 313.684 75.5792 319.239C75.9094 324.793 76.7255 332.891 77.5851 338.936C78.1851 343.158 79.2471 348.453 80.1863 353.11C80.4317 354.387 80.7005 355.654 80.934 356.839C82.4314 364.247 84.4804 371.532 87.064 378.634C87.6014 380.075 88.1825 381.65 88.782 383.301C90.3461 387.578 92.1278 392.425 93.7395 396.169C95.9285 401.256 99.4231 408.477 102.606 414.588C105.681 420.59 109.134 426.392 112.944 431.958C113.971 433.382 115.069 434.97 116.221 436.618C118.696 440.184 121.262 443.864 123.557 446.789C127.612 452.116 131.954 457.217 136.563 462.071C144.79 470.602 153.519 478.633 162.704 486.122C172.553 493.858 183.017 500.777 193.993 506.809C200.032 510.239 208.401 514.104 212.85 516.089C217.837 518.326 224.426 520.786 228.568 522.28C236.402 525.062 246.426 527.759 249.257 528.587C252.457 529.436 256.36 530.217 260.157 530.975L264.701 531.895C269.773 532.893 274.892 533.634 280.038 534.117C286.656 534.781 295.402 535.248 299.98 535.476C302.967 535.574 307.153 535.597 312.71 535.432C315.925 535.321 320.119 535.009 323.504 534.811L325.047 534.7C327.868 534.509 331.598 534.051 334.876 533.636C337.364 533.312 340.653 532.795 343.536 532.329C348.411 531.544 352.371 530.656 357.857 529.429C358.376 529.316 365.161 527.669 369.758 526.271C372.867 525.334 379.328 523.383 384.959 521.236C387.582 520.232 391.302 518.755 394.221 517.569C395.702 516.931 397.72 516.062 398.77 515.611C406.415 512.169 411.479 509.478 412.842 508.725C418.961 505.401 421.734 503.875 429.043 499.237C432.84 496.814 438.096 493.156 442.436 489.906C446.775 486.655 452.234 482.246 456.024 478.942C460.876 474.697 466.808 468.881 469.136 466.579C475.698 459.821 481.861 452.686 487.593 445.21C491.07 440.437 496.049 433.372 499.591 427.851C502.265 423.686 505.419 418.098 507.482 414.251C510.12 409.327 513.545 402.184 516.246 396.058C517.856 392.378 519.888 387.107 522.281 380.394C524.793 373.381 527.234 364.145 527.963 361.467C529.21 356.782 530.622 349.911 531.556 344.531C532.49 339.151 533.536 331.235 534.073 325.127C534.405 321.431 534.601 316.714 534.718 312.585L534.921 307.465C535.052 300.929 534.832 294.391 534.263 287.879C533.99 284.193 533.408 279.756 532.863 275.47C532.61 273.532 532.365 271.646 532.161 269.951C531.292 263.381 529.981 256.877 528.236 250.484C524.97 238.498 521.01 226.712 516.377 215.185C511.982 204.862 506.822 194.88 500.941 185.325C499.141 182.491 494.557 175.31 490.747 170.119C487.089 165.153 482.093 158.91 478.314 154.563C474.535 150.216 469.701 145.12 466.004 141.54C462.306 137.96 457.169 133.478 453.04 129.891L451.154 128.241C446.67 124.486 441.999 120.958 437.161 117.67C433.128 114.885 427.865 111.619 423.216 108.752L419.958 106.739C413.696 102.936 407.171 99.5851 400.432 96.7106C391.638 93.0149 378.829 87.7976 369.067 85.0989L366.663 84.4604C416.292 101.016 457.811 139.659 482.148 192.998C482.84 194.608 483.587 196.181 484.284 197.803L484.455 198.199C532.559 310.555 491.261 450.199 392.392 509.465L391.904 508.652C490.398 449.672 531.503 310.512 483.58 198.576L483.409 198.179C455.093 132.381 400.923 88.0512 337.452 78.2404L334.831 77.9025C333.132 77.6799 331.505 77.4672 330.012 77.211C323.686 76.6151 315.69 76.0601 310.075 75.8634C305.872 75.7363 300.078 75.7684 295.24 75.9974C289.434 76.2563 281.367 76.9489 275.231 77.6952C270.68 78.2708 262.799 79.5884 258.703 80.4801L256.921 80.9014C255.354 81.244 253.58 81.6202 252.183 81.9725C244.506 83.8936 244.039 83.9977 240.328 85.1106C236.074 86.3745 234.099 86.9895 229.972 88.4199C225.845 89.8503 223.308 90.8314 220.428 91.9464C219.533 92.2763 216.826 93.4411 213.875 94.7113Z" fill="#02B377"/>
<path d="M392.732 510.673L392.574 510.659C328.176 503.514 236.382 405.881 188.078 292.962L187.902 292.554L188.287 292.388C287.581 232.857 420.708 190.222 485.067 197.341L485.344 197.374L485.454 197.631C533.814 310.582 492.244 451.007 392.874 510.585L392.732 510.673ZM189.165 292.95C237.394 405.308 328.54 502.431 392.542 509.621C491.429 450.238 532.702 310.632 484.695 198.179C420.476 191.29 288.113 233.707 189.165 292.95Z" fill="#02B377"/>
<path d="M471.399 428.272C439.078 424.69 372.111 446.113 322.169 476.095L321.681 475.281C371.791 445.241 439.009 423.725 471.499 427.317L471.399 428.272Z" fill="#02B377"/>
<path d="M504.508 316.156C449.121 310.029 334.434 346.774 248.857 398.079L248.368 397.266C334.099 345.867 449.051 309.063 504.613 315.212L504.508 316.156Z" fill="#02B377"/>
<path d="M392.969 510.516L392.284 509.857C445.396 455.018 449.386 318.806 401.177 206.205L402.051 205.828C450.401 318.756 446.322 455.435 392.969 510.516Z" fill="#02B377"/>
<path d="M393.1 510.114L392.153 510.259C386.748 474.118 343.078 353.01 294.808 240.269L295.683 239.892C343.978 352.692 387.682 473.91 393.1 510.114Z" fill="#02B377"/>
<path d="M369.555 522.556C329.516 539.787 286.213 542.106 245.231 528.84C219.086 520.296 195.179 506.019 175.258 487.052C154.04 467.147 137.036 442.51 124.768 413.941C104.821 411.671 93.0129 404.668 90.6049 393.675C85.5817 370.339 122.97 331.559 188.287 292.388L188.747 292.107L188.963 292.609C237.182 405.233 328.573 502.638 392.689 509.738L394.132 509.878L392.919 510.593C385.406 515.097 377.601 519.093 369.555 522.556ZM188.282 293.469C123.63 332.353 86.5661 370.635 91.5636 393.525C93.8793 404.143 105.502 410.908 125.171 413.076L125.447 413.109L125.573 413.401C137.795 441.962 154.746 466.539 175.941 486.454C195.767 505.297 219.547 519.48 245.548 527.97C293.92 543.629 345.603 537.454 391.188 510.522C326.93 502.129 236.345 405.345 188.293 293.464L188.282 293.469Z" fill="#02B377"/>
<path d="M289.851 537.098C279.606 535.976 273.527 532.356 272.288 526.681C269.692 514.801 288.599 495.118 321.64 475.313L322.128 476.126C289.452 495.719 270.721 515.008 273.273 526.464C274.412 531.712 280.205 535.054 290.008 536.145L289.851 537.098Z" fill="#02B377"/>
<path d="M193.841 502.409C176.427 500.5 166.148 494.415 164.047 484.811C159.631 464.588 191.939 431.064 248.358 397.243L248.847 398.056C192.792 431.665 160.659 464.824 164.969 484.608C166.966 493.745 176.946 499.586 193.936 501.441L193.841 502.409Z" fill="#02B377"/>
<path d="M392.734 510.645C286.894 534.596 161.567 462.179 113.182 349.17L114.057 348.793C162.251 461.359 287.164 533.553 392.514 509.716L392.734 510.645Z" fill="#02B377"/>
<path d="M392.809 510.627C274.412 558.509 138.813 505.502 90.4281 392.492L91.3031 392.116C139.477 504.635 274.572 557.403 392.439 509.735L392.809 510.627Z" fill="#02B377"/>
<path d="M419.36 507.261C410.931 510.692 401.754 511.868 392.732 510.673C346.643 538.265 294.289 544.742 245.243 528.835C219.097 520.29 195.191 506.014 175.27 487.047C153.971 467.052 136.942 442.357 124.67 413.679L124.348 412.932L125.157 413.013C189.334 420.128 322.208 377.547 421.337 318.114L421.809 317.828L422.025 318.33C454.669 394.571 460.444 461.484 437.116 492.969C432.584 499.237 426.452 504.173 419.36 507.261ZM392.515 509.688L392.679 509.715C411.56 511.821 426.311 505.998 436.397 492.421C459.493 461.299 453.748 394.968 421.426 319.251C322.593 378.376 190.476 420.756 125.926 414.092C138.086 442.348 154.961 466.653 175.972 486.399C195.799 505.241 219.579 519.424 245.58 527.915C294.387 543.718 346.535 537.274 392.42 509.757L392.515 509.688Z" fill="#02B377"/>
<path d="M394.524 512.073C354.531 529.284 313.228 539.689 289.851 537.098L289.956 536.154C322.277 539.736 389.245 518.313 439.181 488.32L439.674 489.144C425.145 497.772 410.062 505.432 394.524 512.073Z" fill="#02B377"/>
<path d="M372.81 459.625C304.41 489.061 233.782 506.831 193.841 502.409L193.946 501.465C249.338 507.604 364.008 470.852 449.597 419.541L450.074 420.359C425.213 435.137 399.402 448.254 372.81 459.625Z" fill="#02B377"/>
<path d="M367.858 528.25C355.407 533.567 341.643 535.015 328.358 532.404C283.494 524.126 238.525 476.694 208.053 405.532L208.928 405.156C239.275 476.026 283.983 523.238 328.532 531.458C352.283 535.852 374.315 528.347 392.261 509.867L392.945 510.526C385.84 518.038 377.312 524.063 367.858 528.25Z" fill="#02B377"/>
<path d="M392.129 520.806L391.93 520.891C383.614 523.253 347.034 447.571 314.444 371.458L315.319 371.081C358.059 470.909 386.084 521.54 391.665 519.954C392.27 519.818 393.398 518.517 392.153 510.259L393.1 510.114C394.084 516.673 393.774 520.098 392.129 520.806Z" fill="#02B377"/>
<path d="M419.36 507.261C411.59 510.605 402.56 511.726 392.574 510.659L391.131 510.519L392.35 509.787C413.892 496.766 432.971 480.051 448.711 460.408C454.458 425.054 444.968 374.439 421.145 318.791L420.979 318.406L421.352 318.246C457.392 296.638 484.901 275.19 501.393 256.45C498.193 236.37 492.54 216.759 484.56 198.058L484.238 197.311L485.047 197.391C505.156 199.619 517.059 206.651 519.476 217.696C521.743 228.072 515.609 241.483 502.387 256.672C513.985 329.569 493.948 405.903 449.623 460.887C447.494 473.805 443.285 484.715 437.122 493.077C432.574 499.307 426.441 504.204 419.36 507.261ZM394.088 509.841C412.336 511.501 426.559 505.643 436.368 492.42C442.244 484.513 446.257 474.337 448.422 462.275C433.13 481.088 414.76 497.175 394.093 509.853L394.088 509.841ZM422.21 318.761C445.616 373.565 455.133 423.505 449.928 458.93C493.212 404.45 512.786 329.352 501.529 257.539C484.991 276.202 457.75 297.438 422.215 318.773L422.21 318.761ZM485.754 198.359C493.495 216.661 499.017 235.824 502.202 255.438C514.893 240.782 520.738 227.827 518.547 217.819C516.273 207.362 504.933 200.642 485.759 198.371L485.754 198.359Z" fill="#02B377"/>
<path d="M439.674 489.145L439.181 488.32C471.857 468.727 490.604 449.445 488.099 437.968C486.949 432.725 481.155 429.383 471.352 428.292L471.452 427.337C481.697 428.459 487.776 432.078 489.016 437.753C491.652 449.63 472.71 469.328 439.674 489.145Z" fill="#02B377"/>
<path d="M450.012 420.344L449.535 419.526C505.59 385.918 537.712 352.764 533.401 332.98C531.404 323.842 521.424 318.002 504.446 316.141L504.551 315.197C521.97 317.117 532.237 323.207 534.345 332.795C538.803 352.986 506.493 386.539 450.012 420.344Z" fill="#02B377"/>
<path d="M422.153 501.123C412.659 505.194 402.811 508.381 392.734 510.645L392.514 509.717C438.972 499.208 476.032 471.009 496.848 430.249C521.389 382.147 521.119 321.051 496.102 262.599L496.977 262.222C522.104 320.931 522.391 382.324 497.669 430.614C481.599 462.288 454.852 487.261 422.153 501.123Z" fill="#02B377"/>
<path d="M397.834 508.519C396.165 509.237 394.497 509.955 392.829 510.673L392.452 509.798C451.04 486.092 496.148 441.763 519.575 384.904C541.787 331.099 541.513 272.245 518.826 219.303L519.701 218.926C542.482 272.118 542.742 331.2 520.458 385.285C497.599 440.669 454.171 484.275 397.834 508.519Z" fill="#02B377"/>
<path d="M485.754 198.359L484.945 198.279C420.768 191.164 287.906 233.74 188.765 293.178L188.293 293.464L188.078 292.962C155.428 216.709 149.654 149.796 172.997 118.318C183.097 104.707 198.444 98.6006 217.365 100.607C263.447 73.032 315.808 66.5377 364.855 82.4456C390.998 90.9945 414.903 105.271 434.828 124.233C456.126 144.229 473.15 168.912 485.439 197.596L485.754 198.359ZM277.771 246.882C356.542 212.983 437.842 192.444 484.248 197.238C472.083 168.97 455.196 144.67 434.19 124.936C414.362 106.09 390.581 91.9033 364.578 83.4083C315.77 67.6051 263.651 74.0507 217.748 101.562L217.597 101.627L217.438 101.612C198.552 99.4944 183.806 105.328 173.715 118.894C150.676 150.019 156.421 216.35 188.783 292.064C217.424 275.07 247.151 259.977 277.771 246.882Z" fill="#02B377"/>
<path d="M416.193 109.88C360.778 103.752 246.108 140.503 160.542 191.804L160.049 190.979C245.78 139.58 360.719 102.781 416.293 108.925L416.193 109.88Z" fill="#02B377"/>
<path d="M320.186 75.2315C287.866 71.6495 220.909 93.0668 170.962 123.065L170.474 122.252C220.583 92.2117 287.796 70.684 320.291 74.2874L320.186 75.2315Z" fill="#02B377"/>
<path d="M402.052 205.828L401.177 206.205C370.83 135.334 326.116 88.1106 281.567 79.8907C257.816 75.497 235.795 82.9964 217.844 101.493L217.154 100.822C235.349 82.0549 257.656 74.515 281.741 78.9449C326.61 87.2343 371.589 134.69 402.052 205.828Z" fill="#02B377"/>
<path d="M295.683 239.892L294.808 240.269C252.135 140.468 224.038 89.7982 218.447 91.3609C217.887 91.5052 216.721 92.7811 217.96 101.056L217.013 101.201C215.998 94.3781 216.393 90.9587 218.187 90.4357C226.514 88.0968 263.109 163.814 295.683 239.892Z" fill="#02B377"/>
<path d="M125.891 414.108L125.082 414.027C104.961 411.804 93.0581 404.773 90.6416 393.728C88.3863 383.346 94.5083 369.941 107.73 354.751C96.127 281.843 116.165 205.509 160.501 150.52C162.63 137.602 166.84 126.692 173.003 118.329C183.127 104.681 198.53 98.5771 217.549 100.68L218.991 100.819L217.783 101.547C196.223 114.569 177.128 131.291 161.376 150.946C155.629 186.299 165.177 236.89 188.943 292.562L189.108 292.947L188.735 293.108C152.695 314.715 125.198 336.158 108.706 354.898C111.906 374.978 117.559 394.589 125.539 413.291L125.891 414.108ZM107.921 355.9C95.2414 370.552 89.3838 383.512 91.5752 393.52C93.8541 403.988 105.195 410.708 124.368 412.979C116.627 394.677 111.105 375.515 107.921 355.9ZM160.196 152.38C116.936 206.947 97.3363 281.987 108.551 353.831C125.137 335.148 152.377 313.912 187.912 292.577C164.502 237.762 154.979 187.81 160.196 152.38ZM191.179 104.852C184.203 107.884 178.172 112.738 173.72 118.905C167.85 126.824 163.832 136.988 161.642 148.992C176.959 130.212 195.339 114.154 216.006 101.496C206.644 100.648 198.368 101.767 191.179 104.852Z" fill="#02B377"/>
<path d="M105.539 296.196C88.1207 294.276 77.8535 288.186 75.7578 278.594C71.3296 258.376 103.649 224.847 160.069 191.026L160.562 191.85C104.502 225.447 72.374 258.618 76.6847 278.402C78.6814 287.54 88.6563 293.368 105.635 295.229L105.539 296.196Z" fill="#02B377"/>
<path d="M138.67 184.002C128.425 182.88 122.346 179.26 121.107 173.585C118.51 161.705 137.429 142.017 170.458 122.217L170.947 123.03C138.271 142.623 119.54 161.912 122.087 173.357C123.225 178.605 129.024 181.958 138.827 183.049L138.67 184.002Z" fill="#02B377"/>
<path d="M114.057 348.793L113.182 349.17C88.0383 290.454 87.7626 229.056 112.46 180.707C133.393 139.675 170.666 111.26 217.389 100.693L217.609 101.622C171.15 112.13 134.09 140.33 113.275 181.09C88.7534 229.238 89.0288 290.346 114.057 348.793Z" fill="#02B377"/>
<path d="M91.3331 392.186L90.4581 392.562C67.689 339.365 67.4118 280.277 89.7077 226.187C113.225 169.054 158.565 124.557 217.329 100.747L217.705 101.622C159.148 125.301 114.021 169.652 90.5937 226.511C68.3842 280.384 68.6343 339.152 91.3331 392.186Z" fill="#02B377"/>
<path d="M332.372 364.503C253.145 398.598 171.338 419.147 125.117 414.012L124.84 413.979L124.745 413.757C76.3664 300.731 117.843 160.347 217.26 100.749L217.4 100.688L217.559 100.703C281.98 107.837 373.72 205.507 422.06 318.411L422.225 318.796L421.84 318.962C393.055 336.1 363.167 351.314 332.372 364.503ZM125.459 413.104C189.658 420.044 322.05 377.628 421.009 318.38C372.792 206.017 281.641 108.882 217.632 101.709C118.766 161.014 77.447 300.64 125.459 413.104Z" fill="#02B377"/>
<path d="M284.49 253.338C216.09 282.774 145.467 300.556 105.514 296.138L105.615 295.182C160.987 301.371 275.693 264.576 361.266 213.259L361.759 214.084C336.896 228.857 311.083 241.971 284.49 253.338Z" fill="#02B377"/>
<path d="M243.342 158.977C203.35 176.188 162.042 186.582 138.67 184.002L138.775 183.058C171.102 186.623 238.063 165.217 288.011 135.219L288.499 136.032C273.971 144.67 258.885 152.335 243.342 158.977Z" fill="#02B377"/>
<path d="M208.961 405.169L208.086 405.545C159.736 292.618 163.81 155.927 217.164 100.845L217.854 101.517C164.726 156.32 160.737 292.533 208.961 405.169Z" fill="#02B377"/>
<path d="M315.319 371.081L314.444 371.458C266.15 258.658 222.457 137.435 217.028 101.236L217.975 101.091C223.374 137.22 267.05 258.34 315.319 371.081Z" fill="#02B377"/>
<path d="M421.396 319.278L421.18 318.776C372.956 206.14 281.564 108.735 217.453 101.647L216.011 101.508L217.23 100.775C263.397 73.1089 315.779 66.6612 364.85 82.5307C390.993 91.0796 414.898 105.356 434.823 124.318C456.041 144.224 473.045 168.86 485.324 197.425C505.267 199.683 517.079 206.698 519.476 217.696C524.571 241.069 487.162 279.9 421.841 319.059L421.396 319.278ZM218.94 100.828C283.162 109.14 373.772 205.982 421.824 317.863C486.476 278.979 523.54 240.697 518.542 217.807C516.226 207.189 504.604 200.424 484.935 198.256L484.67 198.218L484.559 197.961C472.279 169.425 455.375 144.828 434.18 124.913C414.352 106.067 390.571 91.88 364.568 83.385C316.241 67.7345 264.544 73.9427 218.94 100.828Z" fill="#02B377"/>
<path d="M361.759 214.084L361.266 213.259C417.325 179.662 449.453 146.492 445.143 126.707C443.151 117.581 433.171 111.741 416.193 109.88L416.293 108.925C433.712 110.845 443.979 116.935 446.075 126.528C450.483 146.698 418.178 180.263 361.759 214.084Z" fill="#02B377"/>
<path d="M288.499 136.032L288.011 135.219C320.675 115.631 339.418 96.3374 336.866 84.8807C335.716 79.6375 329.934 76.2908 320.119 75.2049L320.225 74.2608C330.469 75.3828 336.56 78.9975 337.788 84.6776C340.436 96.5493 321.528 116.232 288.499 136.032Z" fill="#02B377"/>
<path d="M496.957 262.176L496.082 262.552C447.888 149.986 322.958 77.7855 217.608 101.622L217.389 100.693C323.15 76.7213 448.587 149.201 496.957 262.176Z" fill="#02B377"/>
<path d="M519.714 218.893L518.839 219.269C470.66 106.738 335.565 53.9701 217.699 101.639L217.322 100.764C335.664 52.8493 471.314 105.848 519.714 218.893Z" fill="#02B377"/>
<path d="M396.844 518.846C386.476 523.303 375.796 526.998 364.89 529.9C355.23 532.482 347.374 533.858 344.017 534.445C334.724 536.08 325.413 536.837 325.328 536.833C316.91 537.568 308.458 537.836 300.01 537.634C294.074 537.562 285.924 537.032 279.839 536.291C274.74 535.72 268.89 534.946 264.486 534.062C256.515 532.473 247.094 530.278 240.474 528.453C230.626 525.778 217.68 520.467 208.818 516.745C201.995 513.832 195.387 510.438 189.044 506.588L185.808 504.594C181.115 501.691 175.797 498.393 171.709 495.576C166.46 491.958 160.067 486.87 157.554 484.854C152.616 480.867 146.539 475.325 142.564 471.421C139.924 468.852 136.903 465.561 134.01 462.437C132.661 460.971 131.383 459.544 130.152 458.29C125.604 453.343 121.405 448.086 117.587 442.556C110.514 432.353 104.021 421.76 98.1388 410.827C93.7098 402.238 87.917 389.452 84.9482 379.309C84.4386 377.579 83.827 375.643 83.2254 373.731C81.7977 369.161 80.1655 363.987 79.327 359.757C78.9926 358.048 78.5945 356.159 78.1829 354.207C77.2692 349.899 76.3236 345.453 75.7527 341.716C74.6461 335.128 73.8968 328.486 73.508 321.817C73.4589 320.193 73.4145 318.387 73.2983 316.542C73.1116 312.157 72.928 307.617 72.974 303.837C73.053 297.594 73.4729 289.574 74.0664 283.884C74.6599 278.195 75.5768 271.329 76.4216 266.417C77.5278 259.734 78.9745 253.111 80.7562 246.576C83.849 235.666 87.5391 224.933 91.8097 214.428C94.0982 209.143 97.5612 201.928 100.628 196.073C102.961 191.598 106.161 186.087 108.549 182.349C111.855 177.179 116.77 170.128 120.64 164.854C123.051 161.59 126.469 157.353 129.143 154.281C132.056 150.994 135.399 147.26 138.015 144.503C140.048 142.384 142.844 139.66 145.024 137.56L145.777 136.835C150.734 132.033 157.402 126.578 159.334 125.027C162.322 122.621 164.568 120.867 166.212 119.675C169.684 117.172 175.3 113.193 179.735 110.261C182.704 108.292 189.971 103.878 196.154 100.637C209.996 93.2839 224.548 87.3548 239.587 82.9406C250.136 79.8528 258.317 78.2679 258.322 78.2795C263.607 77.291 269.806 76.241 274.12 75.6291C277.664 75.1268 282.287 74.6863 284.688 74.4826C288.393 74.1601 293.411 73.8674 297.15 73.7517C301.379 73.6186 307.02 73.6518 310.031 73.739C313.868 73.7883 318.477 74.0865 322.775 74.4353C325.24 74.605 327.713 74.8265 330.167 75.098L330.979 75.2185C340.524 76.6417 352.347 78.315 361.251 80.6914C368.234 82.5537 376.444 85.0213 382.181 86.9772C387.208 88.699 393.584 91.2094 398.07 93.2472C404.48 96.1577 411.962 99.8238 417.104 102.616C421.287 104.881 427.194 108.423 432.147 111.642C437.1 114.862 443.432 119.424 448.684 123.497C452.3 126.31 456.633 130.114 460.452 133.462L462.278 135.068C466.862 139.069 472.529 145.009 476.46 149.291C479.012 152.009 481.881 155.462 484.577 158.836C485.849 160.377 487.087 161.905 488.196 163.197C492.501 168.396 496.412 173.909 499.898 179.69C500.774 181.179 501.762 182.801 502.792 184.487C505.131 188.347 507.549 192.326 509.361 195.735C512.273 201.216 515.873 208.682 518.31 214.312C523.073 225.909 527.067 237.807 530.264 249.929C532.224 257.219 533.683 264.635 534.63 272.123C534.789 273.521 534.963 275.05 535.181 276.615C535.721 281.084 536.312 286.153 536.57 290.19C537.073 296.774 537.221 303.38 537.012 309.98L536.951 313.919C536.741 318.476 536.502 323.639 536.098 327.712C535.474 333.844 534.363 341.705 533.339 347.262C531.083 359.534 527.844 371.605 523.652 383.357C522.848 385.57 520.003 393.224 517.404 399.072C514.626 405.245 511.091 412.421 508.39 417.358C506.27 421.202 503.048 426.792 500.331 430.92C496.679 436.474 491.566 443.583 487.998 448.368C482.007 456.021 475.561 463.306 468.695 470.184C465.105 473.665 459.759 478.689 455.554 482.283C451.749 485.524 446.291 489.837 441.973 493.008C427.955 503.3 412.816 511.968 396.844 518.846ZM279.956 535.341C286.047 536.066 294.106 536.608 300.025 536.674C308.443 536.876 316.866 536.617 325.256 535.895C325.338 535.86 334.608 535.134 343.838 533.513C347.194 532.926 355.022 531.548 364.647 528.982C392.327 521.636 418.382 509.161 441.461 492.205C445.761 489.055 451.19 484.769 454.97 481.538C459.164 477.95 464.497 472.959 468.087 469.478C474.892 462.641 481.285 455.406 487.233 447.812C490.796 443.016 495.942 435.92 499.541 430.403C502.24 426.296 505.444 420.728 507.553 416.889C510.252 411.98 513.78 404.821 516.551 398.664C518.304 394.771 520.649 388.909 522.766 383.034C526.94 371.326 530.167 359.302 532.417 347.078C533.429 341.527 534.536 333.722 535.102 327.616C535.516 323.566 535.749 318.419 535.952 313.879L536.141 309.885C536.339 303.318 536.188 296.746 535.688 290.196C535.43 286.159 534.842 281.13 534.312 276.685C534.129 275.104 533.944 273.58 533.757 272.181C532.814 264.744 531.368 257.379 529.427 250.138C526.242 238.06 522.263 226.206 517.517 214.653C515.092 209.018 511.507 201.588 508.605 196.13C506.807 192.756 504.39 188.777 502.061 184.94C501.026 183.242 500.053 181.656 499.157 180.119C495.696 174.394 491.816 168.932 487.548 163.78C486.419 162.441 485.196 160.948 483.924 159.408C481.186 156.065 478.346 152.614 475.85 149.899C471.918 145.646 466.289 139.73 461.743 135.755L459.902 134.141C456.099 130.8 451.776 127.019 448.176 124.213C442.942 120.147 436.482 115.515 431.705 112.414C426.927 109.312 420.906 105.667 416.768 103.41C411.631 100.63 404.178 96.9654 397.784 94.0615C393.337 92.0486 386.989 89.5399 381.995 87.8313C376.264 85.8871 368.081 83.4212 361.143 81.5954C352.262 79.209 340.447 77.4907 330.921 76.1425L330.137 76.0236C327.975 75.82 325.44 75.5837 322.79 75.3692C286.735 72.9102 250.656 81.8966 217.884 101.49L217.814 101.52L217.662 101.585L217.174 100.772C240.659 86.4716 267.043 77.6018 294.398 74.8115C291.226 74.9597 287.714 75.1851 284.976 75.4094C282.535 75.6165 277.941 76.0587 274.413 76.5676C270.116 77.1861 263.971 78.296 258.662 79.1979C258.592 79.228 250.568 80.7594 239.991 83.8455C224.986 88.2569 210.469 94.1845 196.665 101.537C190.506 104.768 183.268 109.155 180.335 111.109C175.911 114.036 170.302 117.998 166.842 120.497C165.198 121.688 162.971 123.421 159.994 125.822C158.074 127.367 151.424 132.801 146.508 137.571L145.744 138.301C143.539 140.439 140.786 143.103 138.765 145.217C136.156 147.958 132.836 151.682 129.922 154.968C127.252 157.984 123.848 162.187 121.46 165.441C117.597 170.698 112.746 177.708 109.388 182.887C107.009 186.676 103.802 192.107 101.447 196.564C98.4275 202.399 94.9494 209.578 92.7142 214.827C88.4368 225.309 84.7367 236.018 81.6305 246.905C79.8617 253.412 78.4206 260.004 77.3125 266.655C76.4442 271.481 75.4959 278.499 74.9789 284.045C74.4619 289.591 74.0154 297.678 73.9113 303.862C73.8619 307.603 74.0421 312.102 74.2389 316.511C74.32 318.37 74.4228 320.151 74.4536 321.797C74.8335 328.426 75.5794 335.029 76.688 341.576C77.249 345.289 78.1895 349.724 79.0982 354.02C79.5098 355.973 79.8928 357.827 80.259 359.577C81.0891 363.755 82.6995 368.911 84.1289 373.453C84.7389 375.417 85.3354 377.317 85.845 379.047C88.8003 389.128 94.563 401.844 98.977 410.397C104.833 421.281 111.296 431.827 118.336 441.984C122.136 447.469 126.308 452.687 130.823 457.6C132.014 458.858 133.355 460.272 134.67 461.752C137.573 464.9 140.573 468.144 143.208 470.702C147.177 474.525 153.2 480.104 158.123 484.056C160.624 486.077 166.996 491.147 172.223 494.746C176.283 497.562 181.596 500.848 186.283 503.739L189.525 505.746C195.821 509.566 202.382 512.935 209.156 515.826C217.988 519.546 230.881 524.797 240.699 527.499C247.286 529.31 256.695 531.511 264.633 533.086C269.02 533.964 274.821 534.689 279.924 535.3L279.956 535.341Z" fill="#02B377"/>
<path d="M392.732 510.673L392.574 510.659C328.176 503.514 236.382 405.881 188.078 292.962L187.902 292.554L188.287 292.388C287.581 232.857 420.708 190.222 485.067 197.341L485.344 197.374L485.454 197.631C533.814 310.582 492.244 451.007 392.874 510.585L392.732 510.673ZM189.165 292.95C237.394 405.308 328.54 502.431 392.542 509.621C491.429 450.237 532.702 310.632 484.695 198.179C420.476 191.29 288.112 233.707 189.165 292.95Z" fill="#02B377"/>
<path d="M471.399 428.272C439.078 424.69 372.111 446.112 322.169 476.094L321.681 475.281C371.791 445.241 439.009 423.725 471.499 427.316L471.399 428.272Z" fill="#02B377"/>
<path d="M504.508 316.156C449.121 310.029 334.434 346.774 248.857 398.079L248.368 397.266C334.1 345.867 449.051 309.063 504.613 315.212L504.508 316.156Z" fill="#02B377"/>
<path d="M392.969 510.516L392.284 509.857C445.396 455.018 449.386 318.805 401.177 206.204L402.052 205.828C450.401 318.756 446.322 455.435 392.969 510.516Z" fill="#02B377"/>
<path d="M393.1 510.114L392.153 510.259C386.749 474.118 343.078 353.01 294.808 240.269L295.683 239.892C343.978 352.692 387.682 473.91 393.1 510.114Z" fill="#02B377"/>
<path d="M369.555 522.556C329.516 539.786 286.213 542.106 245.231 528.84C219.086 520.295 195.179 506.018 175.258 487.052C154.04 467.146 137.036 442.51 124.768 413.941C104.821 411.671 93.0129 404.668 90.6049 393.674C85.5817 370.339 122.97 331.559 188.287 292.388L188.747 292.107L188.963 292.609C237.182 405.233 328.573 502.638 392.689 509.738L394.132 509.877L392.919 510.593C385.406 515.097 377.601 519.093 369.555 522.556ZM188.282 293.469C123.63 332.353 86.5661 370.634 91.5636 393.524C93.8793 404.143 105.502 410.908 125.171 413.076L125.447 413.109L125.573 413.401C137.795 441.962 154.746 466.538 175.941 486.454C195.767 505.296 219.547 519.479 245.548 527.97C293.92 543.629 345.603 537.454 391.188 510.522C326.93 502.128 236.345 405.344 188.293 293.464L188.282 293.469Z" fill="#02B377"/>
<path d="M289.851 537.098C279.606 535.976 273.527 532.356 272.288 526.681C269.692 514.801 288.599 495.118 321.64 475.313L322.128 476.126C289.452 495.719 270.721 515.008 273.273 526.464C274.412 531.712 280.205 535.054 290.008 536.145L289.851 537.098Z" fill="#02B377"/>
<path d="M193.841 502.409C176.427 500.5 166.148 494.415 164.048 484.811C159.631 464.588 191.939 431.064 248.358 397.243L248.847 398.056C192.792 431.664 160.659 464.823 164.969 484.608C166.966 493.745 176.946 499.586 193.936 501.441L193.841 502.409Z" fill="#02B377"/>
<path d="M392.734 510.645C286.894 534.596 161.567 462.179 113.182 349.169L114.057 348.793C162.251 461.359 287.164 533.553 392.514 509.716L392.734 510.645Z" fill="#02B377"/>
<path d="M392.809 510.626C274.412 558.509 138.813 505.502 90.4281 392.492L91.3031 392.116C139.477 504.635 274.572 557.403 392.439 509.735L392.809 510.626Z" fill="#02B377"/>
<path d="M419.36 507.261C410.931 510.692 401.754 511.868 392.732 510.673C346.643 538.265 294.289 544.742 245.243 528.834C219.097 520.29 195.191 506.013 175.27 487.047C153.971 467.051 136.942 442.357 124.67 413.679L124.348 412.932L125.157 413.013C189.334 420.127 322.208 377.546 421.337 318.114L421.809 317.828L422.025 318.33C454.669 394.571 460.444 461.484 437.116 492.969C432.584 499.237 426.452 504.173 419.36 507.261ZM392.515 509.688L392.679 509.714C411.56 511.821 426.311 505.998 436.397 492.421C459.493 461.299 453.748 394.968 421.426 319.251C322.593 378.376 190.476 420.756 125.926 414.092C138.086 442.348 154.961 466.653 175.972 486.399C195.799 505.241 219.579 519.424 245.58 527.915C294.387 543.718 346.535 537.274 392.42 509.756L392.515 509.688Z" fill="#02B377"/>
<path d="M394.524 512.073C354.531 529.284 313.228 539.689 289.851 537.098L289.956 536.153C322.277 539.735 389.245 518.313 439.181 488.32L439.674 489.144C425.144 497.772 410.062 505.432 394.524 512.073Z" fill="#02B377"/>
<path d="M372.81 459.625C304.41 489.061 233.782 506.831 193.841 502.409L193.946 501.465C249.338 507.604 364.008 470.852 449.597 419.541L450.074 420.359C425.213 435.137 399.402 448.254 372.81 459.625Z" fill="#02B377"/>
<path d="M367.858 528.25C355.407 533.567 341.643 535.015 328.358 532.404C283.494 524.126 238.525 476.694 208.053 405.532L208.927 405.155C239.275 476.026 283.983 523.238 328.532 531.458C352.283 535.851 374.315 528.347 392.261 509.867L392.945 510.526C385.84 518.038 377.312 524.063 367.858 528.25Z" fill="#02B377"/>
<path d="M392.129 520.805L391.93 520.891C383.614 523.253 347.034 447.571 314.444 371.458L315.319 371.081C358.059 470.909 386.084 521.54 391.665 519.954C392.271 519.818 393.398 518.517 392.153 510.259L393.1 510.114C394.084 516.673 393.774 520.098 392.129 520.805Z" fill="#02B377"/>
<path d="M419.36 507.261C411.59 510.605 402.56 511.726 392.574 510.659L391.131 510.519L392.35 509.787C413.892 496.766 432.971 480.051 448.711 460.408C454.458 425.054 444.968 374.438 421.145 318.791L420.979 318.406L421.352 318.246C457.392 296.638 484.901 275.19 501.393 256.45C498.193 236.37 492.54 216.759 484.559 198.058L484.238 197.311L485.047 197.391C505.156 199.619 517.059 206.651 519.476 217.696C521.743 228.072 515.609 241.483 502.387 256.672C513.985 329.569 493.948 405.903 449.623 460.887C447.494 473.805 443.284 484.715 437.122 493.077C432.574 499.307 426.441 504.204 419.36 507.261ZM394.088 509.841C412.335 511.501 426.559 505.643 436.368 492.42C442.244 484.513 446.257 474.337 448.422 462.275C433.13 481.088 414.76 497.175 394.093 509.852L394.088 509.841ZM422.21 318.761C445.616 373.565 455.133 423.505 449.928 458.93C493.212 404.45 512.786 329.352 501.529 257.539C484.99 276.202 457.75 297.438 422.215 318.773L422.21 318.761ZM485.754 198.359C493.495 216.661 499.017 235.824 502.202 255.438C514.893 240.782 520.738 227.827 518.547 217.819C516.273 207.362 504.933 200.642 485.759 198.371L485.754 198.359Z" fill="#02B377"/>
<path d="M439.674 489.144L439.181 488.32C471.857 468.727 490.604 449.445 488.099 437.968C486.949 432.725 481.155 429.383 471.352 428.292L471.452 427.336C481.697 428.458 487.776 432.078 489.016 437.753C491.652 449.63 472.71 469.327 439.674 489.144Z" fill="#02B377"/>
<path d="M450.012 420.344L449.535 419.526C505.59 385.918 537.712 352.764 533.401 332.98C531.404 323.842 521.424 318.002 504.446 316.141L504.551 315.197C521.97 317.117 532.237 323.207 534.345 332.795C538.803 352.986 506.493 386.538 450.012 420.344Z" fill="#02B377"/>
<path d="M422.153 501.123C412.659 505.193 402.811 508.381 392.734 510.645L392.514 509.716C438.972 499.208 476.033 471.008 496.848 430.248C521.389 382.147 521.119 321.051 496.102 262.599L496.977 262.222C522.104 320.931 522.391 382.324 497.669 430.614C481.599 462.287 454.852 487.261 422.153 501.123Z" fill="#02B377"/>
<path d="M397.834 508.519C396.165 509.237 394.497 509.955 392.829 510.673L392.452 509.798C451.04 486.092 496.148 441.763 519.575 384.904C541.787 331.099 541.513 272.245 518.826 219.303L519.701 218.926C542.482 272.118 542.742 331.2 520.458 385.285C497.599 440.669 454.171 484.275 397.834 508.519Z" fill="#02B377"/>
<path d="M485.754 198.359L484.945 198.279C420.768 191.164 287.906 233.74 188.765 293.178L188.294 293.464L188.078 292.962C155.428 216.709 149.654 149.796 172.998 118.318C183.097 104.707 198.444 98.6004 217.365 100.607C263.448 73.0319 315.809 66.5375 364.855 82.4454C390.998 90.9943 414.903 105.271 434.828 124.233C456.126 144.228 473.15 168.911 485.44 197.596L485.754 198.359ZM277.771 246.882C356.542 212.982 437.842 192.444 484.248 197.237C472.083 168.97 455.196 144.67 434.19 124.936C414.362 106.09 390.581 91.9031 364.578 83.4081C315.77 67.6049 263.651 74.0505 217.749 101.562L217.597 101.627L217.439 101.612C198.552 99.4942 183.807 105.328 173.716 118.894C150.676 150.019 156.421 216.35 188.783 292.064C217.424 275.07 247.151 259.977 277.771 246.882Z" fill="#02B377"/>
<path d="M416.193 109.88C360.778 103.751 246.108 140.503 160.542 191.804L160.049 190.979C245.78 139.58 360.719 102.781 416.293 108.925L416.193 109.88Z" fill="#02B377"/>
<path d="M320.186 75.2313C287.865 71.6493 220.909 93.0666 170.962 123.065L170.473 122.252C220.583 92.2115 287.796 70.6838 320.291 74.2872L320.186 75.2313Z" fill="#02B377"/>
<path d="M402.052 205.828L401.177 206.204C370.83 135.334 326.116 88.1104 281.567 79.8905C257.816 75.4968 235.795 82.9963 217.843 101.493L217.154 100.822C235.349 82.0547 257.656 74.5148 281.741 78.9447C326.61 87.2341 371.589 134.689 402.052 205.828Z" fill="#02B377"/>
<path d="M295.683 239.892L294.808 240.269C252.135 140.467 224.038 89.7981 218.447 91.3608C217.887 91.5051 216.721 92.781 217.96 101.056L217.013 101.201C215.998 94.3781 216.393 90.9587 218.187 90.4357C226.514 88.0967 263.109 163.814 295.683 239.892Z" fill="#02B377"/>
<path d="M125.891 414.107L125.082 414.027C104.961 411.804 93.0581 404.773 90.6416 393.728C88.3863 383.346 94.5083 369.94 107.73 354.751C96.127 281.843 116.165 205.509 160.501 150.52C162.63 137.602 166.84 126.692 173.003 118.329C183.127 104.681 198.53 98.5769 217.549 100.68L218.991 100.819L217.783 101.547C196.223 114.569 177.128 131.291 161.376 150.945C155.629 186.299 165.177 236.89 188.943 292.562L189.108 292.947L188.735 293.108C152.695 314.715 125.198 336.158 108.706 354.898C111.906 374.978 117.559 394.589 125.539 413.291L125.891 414.107ZM107.921 355.9C95.2414 370.551 89.3838 383.512 91.5752 393.519C93.8541 403.988 105.195 410.708 124.368 412.979C116.627 394.677 111.105 375.515 107.921 355.9ZM160.196 152.38C116.936 206.947 97.3363 281.986 108.551 353.831C125.137 335.148 152.377 313.912 187.912 292.577C164.502 237.761 154.979 187.81 160.196 152.38ZM191.179 104.852C184.203 107.883 178.172 112.738 173.72 118.905C167.85 126.824 163.832 136.988 161.642 148.992C176.959 130.211 195.339 114.153 216.006 101.496C206.644 100.648 198.368 101.767 191.179 104.852Z" fill="#02B377"/>
<path d="M105.539 296.196C88.1208 294.276 77.8536 288.186 75.7578 278.593C71.3297 258.376 103.649 224.846 160.069 191.026L160.562 191.85C104.503 225.447 72.374 258.618 76.6848 278.402C78.6814 287.54 88.6564 293.368 105.635 295.229L105.539 296.196Z" fill="#02B377"/>
<path d="M138.67 184.002C128.425 182.88 122.346 179.26 121.107 173.585C118.51 161.705 137.429 142.017 170.458 122.217L170.947 123.03C138.271 142.623 119.54 161.912 122.087 173.357C123.225 178.605 129.024 181.958 138.827 183.049L138.67 184.002Z" fill="#02B377"/>
<path d="M114.057 348.793L113.182 349.169C88.0383 290.454 87.7626 229.056 112.46 180.707C133.393 139.675 170.666 111.26 217.389 100.693L217.609 101.622C171.15 112.13 134.09 140.33 113.275 181.09C88.7534 229.238 89.0288 290.346 114.057 348.793Z" fill="#02B377"/>
<path d="M91.3331 392.186L90.4581 392.562C67.689 339.365 67.4118 280.277 89.7077 226.187C113.225 169.054 158.565 124.557 217.329 100.747L217.705 101.622C159.148 125.301 114.021 169.651 90.5937 226.51C68.3842 280.384 68.6343 339.152 91.3331 392.186Z" fill="#02B377"/>
<path d="M332.372 364.503C253.145 398.598 171.338 419.147 125.117 414.012L124.84 413.979L124.745 413.757C76.3665 300.731 117.843 160.347 217.26 100.748L217.4 100.688L217.559 100.703C281.98 107.837 373.72 205.507 422.06 318.411L422.225 318.796L421.84 318.962C393.055 336.1 363.167 351.313 332.372 364.503ZM125.459 413.104C189.658 420.044 322.05 377.628 421.009 318.379C372.792 206.017 281.641 108.882 217.632 101.709C118.766 161.014 77.447 300.64 125.459 413.104Z" fill="#02B377"/>
<path d="M284.49 253.337C216.09 282.773 145.467 300.556 105.514 296.138L105.615 295.182C160.987 301.371 275.693 264.576 361.266 213.259L361.759 214.084C336.896 228.857 311.083 241.97 284.49 253.337Z" fill="#02B377"/>
<path d="M243.342 158.977C203.35 176.188 162.042 186.581 138.67 184.002L138.775 183.058C171.102 186.623 238.063 165.217 288.011 135.219L288.499 136.032C273.971 144.67 258.885 152.335 243.342 158.977Z" fill="#02B377"/>
<path d="M208.961 405.169L208.086 405.545C159.736 292.618 163.81 155.926 217.164 100.845L217.854 101.516C164.726 156.32 160.737 292.533 208.961 405.169Z" fill="#02B377"/>
<path d="M315.319 371.081L314.444 371.458C266.15 258.658 222.457 137.435 217.028 101.236L217.975 101.091C223.374 137.22 267.05 258.34 315.319 371.081Z" fill="#02B377"/>
<path d="M421.396 319.278L421.18 318.776C372.956 206.14 281.564 108.735 217.453 101.647L216.011 101.508L217.23 100.775C263.398 73.1087 315.779 66.661 364.85 82.5305C390.993 91.0794 414.898 105.356 434.823 124.318C456.041 144.224 473.045 168.86 485.324 197.424C505.267 199.682 517.079 206.697 519.476 217.696C524.571 241.069 487.162 279.9 421.841 319.059L421.396 319.278ZM218.94 100.828C283.162 109.14 373.773 205.982 421.824 317.863C486.476 278.978 523.54 240.697 518.542 217.807C516.226 207.189 504.604 200.424 484.935 198.255L484.67 198.217L484.559 197.961C472.279 169.425 455.375 144.828 434.18 124.913C414.352 106.067 390.571 91.8798 364.568 83.3848C316.241 67.7343 264.544 73.9425 218.94 100.828Z" fill="#02B377"/>
<path d="M361.759 214.084L361.266 213.259C417.325 179.662 449.454 146.491 445.143 126.707C443.151 117.581 433.171 111.741 416.193 109.88L416.293 108.925C433.712 110.845 443.979 116.935 446.075 126.527C450.483 146.698 418.178 180.263 361.759 214.084Z" fill="#02B377"/>
<path d="M288.499 136.032L288.011 135.219C320.675 115.631 339.418 96.3373 336.866 84.8807C335.716 79.6375 329.934 76.2907 320.119 75.2048L320.224 74.2607C330.469 75.3827 336.56 78.9975 337.788 84.6775C340.436 96.5492 321.528 116.232 288.499 136.032Z" fill="#02B377"/>
<path d="M496.957 262.175L496.082 262.552C447.888 149.986 322.958 77.7854 217.608 101.622L217.389 100.693C323.15 76.7211 448.587 149.201 496.957 262.175Z" fill="#02B377"/>
<path d="M519.714 218.893L518.839 219.269C470.66 106.738 335.565 53.9699 217.699 101.638L217.322 100.763C335.664 52.8491 471.314 105.848 519.714 218.893Z" fill="#02B377"/>
<path d="M396.069 519.166L395.17 519.552L391.96 520.865L390.537 521.477C389.242 522.034 387.382 522.724 385.79 523.299C376.801 526.631 367.615 529.407 358.284 531.61C341.248 535.626 323.81 537.684 306.307 537.745C297.467 537.725 288.634 537.253 279.842 536.331C271.757 535.506 263.729 534.191 255.803 532.393C254.44 532.053 252.975 531.702 251.454 531.347C246.29 530.113 240.436 528.719 235.941 527.141C234.446 526.623 232.806 526.057 231.08 525.486C227.246 524.191 223.267 522.848 220.024 521.547C214.341 519.264 206.995 516.009 201.759 513.451C194.354 509.835 184.528 503.997 171.705 495.633C166.215 491.854 160.918 487.802 155.834 483.493C150.727 479.335 145.857 474.894 141.246 470.191C132.9 461.406 125.001 452.207 117.577 442.63C111.625 434.614 104.977 423.247 99.8316 414.247C97.4338 410.025 94.9372 404.448 92.7501 399.527L91.7159 397.124C88.8713 390.839 86.4367 384.377 84.4273 377.778C83.9494 376.089 83.3963 374.225 82.8247 372.287C81.5508 368.009 80.24 363.582 79.3555 359.856C77.9172 353.782 76.3659 345.808 75.5033 340.012C74.6694 334.412 73.8746 327.135 73.5366 321.916C73.2397 317.467 73.1695 311.842 73.1121 306.889L73.0277 301.809C73.0115 294.889 73.4495 287.975 74.3391 281.113C75.5771 271.523 78.0867 258.013 80.7214 246.688C82.3898 239.732 84.5303 232.898 87.1279 226.233L88.9255 221.67C90.3592 217.998 91.9873 213.813 93.4984 210.577C96.3128 204.554 100.553 196.285 104.298 189.502C106.971 184.66 111.026 178.532 112.644 176.121C115.02 172.582 118.347 168.136 121.001 164.505L121.79 163.446C127.152 156.344 133 149.622 139.294 143.331C144.715 137.998 148.871 134.066 151.981 131.331C156.06 127.764 161.735 123.248 165.681 120.209C170.65 116.397 177.344 111.968 179.237 110.711C183.552 107.886 187.206 105.774 191.065 103.56C192.471 102.747 197.969 99.7456 200.995 98.2635C205.128 96.236 208.687 94.4829 214.921 91.8419C224.799 87.7124 234.949 84.2681 245.301 81.5332C250.317 80.1765 256.252 78.8668 259.014 78.3139C262.979 77.5342 268.89 76.553 274.847 75.6485C278.232 75.1598 283.05 74.6622 286.826 74.4064C292.434 74.0394 299.077 73.7659 303.785 73.7171C312.04 73.6213 322.974 74.5438 330.239 75.1366C331.924 75.3242 333.607 75.5401 335.268 75.7378C340.481 76.412 346.574 77.3017 351.3 78.4203C352.687 78.7501 354.22 79.0997 355.81 79.4525C359.46 80.2876 363.599 81.2303 366.846 82.156C373.327 83.8906 379.717 85.9544 385.988 88.3394C387.489 88.9659 389.146 89.6355 390.901 90.3733C394.694 91.8935 398.616 93.4553 401.797 94.9347C407.743 97.6992 414.691 101.249 419.488 103.914C424.285 106.578 430.317 110.315 434.446 113.129C436.708 114.658 444.569 120.041 450.34 124.775C460.15 132.607 469.302 141.228 477.707 150.552C486.476 160.26 496.154 174.139 499.906 179.645C503.396 184.766 507.418 192.023 510.223 197.191C512.194 200.905 514.411 205.703 516.364 209.951C517.027 211.491 517.746 212.937 518.375 214.271C521.563 221.339 524.261 228.618 526.451 236.057C528.303 242.353 530.171 248.878 531.316 254.012C532.681 260.076 534.146 268.074 534.95 273.894C535.734 279.475 536.438 286.735 536.73 291.975C536.969 296.545 537.021 302.289 536.99 307.391L537.01 312.097C536.927 318.044 536.524 323.982 535.803 329.886C535.258 334.725 534.262 340.795 533.381 346.138L532.775 350.16C531.445 357.367 529.69 364.49 527.519 371.49C524.265 382.306 520.265 392.884 515.549 403.147C512.629 409.215 508.286 417.5 504.414 424.311C502.263 428.084 499.108 432.802 496.575 436.588L495.978 437.481C490.335 445.634 484.198 453.433 477.6 460.835C475.247 463.369 469.242 469.783 464.404 474.382C460.782 477.821 455.45 482.494 451.036 486.052C444.556 491.293 437.809 496.195 430.823 500.739C425.588 504.125 422.558 505.858 419.041 507.869C416.988 509.043 411.904 511.784 409.106 513.154C405.136 515.111 402.567 516.369 399.772 517.586L396.074 519.177L396.069 519.166ZM213.874 93.3294C208.554 95.6188 205.253 97.2331 201.476 99.0933C198.462 100.57 192.994 103.545 191.6 104.353C187.746 106.579 184.11 108.669 179.818 111.484C174.698 114.848 169.649 118.376 166.327 120.94C162.408 124.009 156.736 128.469 152.669 132.03C149.566 134.748 145.428 138.659 140.019 143.987C133.751 150.219 127.928 156.883 122.593 163.93L121.804 164.989C119.193 168.56 115.844 173.085 113.46 176.572C111.849 178.966 107.824 185.067 105.144 189.829C101.406 196.596 97.1837 204.842 94.376 210.849C92.8782 214.051 91.2568 218.22 89.8231 221.892L88.0255 226.455C85.4284 233.078 83.2938 239.873 81.6371 246.792C78.9924 258.093 76.4911 271.558 75.2597 281.131C74.3975 287.961 73.9861 294.84 74.0282 301.724C74.0573 303.302 74.0665 305.026 74.1009 306.809C74.17 311.757 74.2352 317.37 74.5371 321.831C74.8818 327.034 75.7264 334.234 76.497 339.848C77.2676 345.462 78.9141 353.561 80.3424 359.611C81.2169 363.313 82.5227 367.729 83.7765 371.96C84.3597 373.894 84.9129 375.757 85.3957 377.458C87.3862 384.014 89.8025 390.434 92.6291 396.675L93.6634 399.079C95.8521 403.972 98.3336 409.513 100.716 413.7C105.833 422.698 112.454 434.035 118.437 442.025C125.836 451.577 133.715 460.749 142.043 469.503C146.625 474.18 151.466 478.596 156.543 482.731C161.594 487.018 166.859 491.047 172.316 494.803C181.949 501.301 191.953 507.231 202.276 512.564C207.519 515.106 214.813 518.369 220.48 520.645C223.7 521.928 227.652 523.27 231.486 524.565C233.2 525.141 234.846 525.69 236.341 526.208C240.803 527.773 246.641 529.16 251.776 530.393C253.309 530.742 254.762 531.099 256.125 531.439C264.007 533.223 271.989 534.53 280.029 535.352C288.789 536.271 297.59 536.743 306.398 536.766C333.43 536.66 360.231 531.786 385.57 522.37C387.115 521.816 388.954 521.108 390.259 520.574L391.67 519.966L394.869 518.659C395.825 518.247 396.992 517.745 398.077 517.278L399.465 516.681C402.242 515.486 404.807 514.216 408.653 512.326C411.504 510.919 416.553 508.193 418.606 507.019C422.1 505.018 425.13 503.285 430.334 499.926C437.299 495.405 444.022 490.522 450.477 485.298C454.837 481.776 460.18 477.098 463.784 473.681C468.615 469.099 474.591 462.711 476.939 460.166C483.498 452.804 489.604 445.051 495.223 436.949L495.816 436.044C498.342 432.275 501.485 427.562 503.622 423.821C507.488 417.028 511.848 408.75 514.731 402.725C519.423 392.5 523.403 381.963 526.643 371.189C528.805 364.231 530.55 357.149 531.869 349.983L532.52 345.97C533.394 340.643 534.389 334.601 534.919 329.728C535.643 323.866 536.055 317.97 536.153 312.065L536.128 307.347C536.117 302.277 536.105 296.53 535.864 291.988C535.583 286.771 534.877 279.54 534.103 273.982C533.292 268.178 531.847 260.227 530.493 254.187C529.329 249.074 527.467 242.561 525.624 236.288C523.454 228.897 520.776 221.664 517.608 214.642C517.021 213.277 516.302 211.83 515.587 210.299C513.645 206.074 511.445 201.283 509.483 197.592C506.735 192.428 502.763 185.191 499.212 180.151C495.46 174.645 485.771 160.84 477.058 151.163C468.686 141.861 459.568 133.257 449.796 125.438C444.052 120.734 436.229 115.376 433.967 113.847C429.87 111.074 424.023 107.479 419.074 104.687C414.125 101.894 407.37 98.4402 401.382 95.7075C398.243 94.293 394.313 92.6796 390.537 91.166C388.868 90.5014 387.2 89.8368 385.613 89.1371C379.374 86.7582 373.016 84.7037 366.565 82.9819L366.168 82.8624C416.986 99.7082 459.486 139.409 483.97 194.343C484.372 195.276 484.779 196.221 485.185 197.166L485.361 197.575C533.814 310.582 492.244 451.007 392.874 510.585L392.386 509.772C491.403 450.401 532.735 310.549 484.57 197.985L484.394 197.576C455.56 130.576 400.067 85.7099 335.183 76.6318L330.177 76.0206C322.94 75.4294 311.977 74.5337 303.82 74.601C299.14 74.6514 292.508 74.9198 286.917 75.2935C283.16 75.5276 278.375 76.0384 275.007 76.5338C269.058 77.3933 263.159 78.3694 259.221 79.1791C256.465 79.7153 250.57 81.0216 245.577 82.3683C235.276 85.1201 225.175 88.571 215.344 92.6968L213.874 93.3294Z" fill="#02B377"/>
</svg>
