<svg width="201" height="202" viewBox="0 0 201 202" fill="none" xmlns="http://www.w3.org/2000/svg">
<path d="M100.41 201.429C80.5508 201.429 61.1375 195.54 44.6252 184.507C28.1129 173.474 15.2431 157.792 7.64327 139.445C0.0434771 121.097 -1.94494 100.908 1.92941 81.4304C5.80375 61.9528 15.3668 44.0614 29.4094 30.0188C43.452 15.9762 61.3434 6.41311 80.821 2.53877C100.299 -1.33557 120.488 0.652875 138.835 8.25267C157.183 15.8525 172.865 28.7223 183.898 45.2346C194.931 61.747 200.82 81.1602 200.82 101.019C200.791 127.641 190.203 153.164 171.378 171.988C152.554 190.812 127.031 201.4 100.41 201.429ZM100.41 1.61942C80.7481 1.61942 61.5279 7.44996 45.1798 18.3737C28.8317 29.2975 16.0899 44.8238 8.56612 62.9892C1.04231 81.1546 -0.925717 101.143 2.91085 120.427C6.74742 139.711 16.2163 157.424 30.1201 171.326C44.0238 185.229 61.7379 194.696 81.0222 198.531C100.306 202.365 120.295 200.395 138.459 192.869C156.624 185.344 172.149 172.601 183.071 156.251C193.993 139.902 199.822 120.681 199.82 101.019C199.791 74.6641 189.308 49.3967 170.671 30.7616C152.034 12.1265 126.765 1.64588 100.41 1.61942Z" fill="url(#paint0_linear_43_28)"/>
<path d="M100.41 198.479C81.1343 198.479 62.2914 192.763 46.2642 182.054C30.237 171.345 17.7453 156.124 10.3688 138.316C2.99229 120.507 1.06227 100.911 4.82279 82.0059C8.5833 63.1005 17.8654 45.7348 31.4954 32.1047C45.1254 18.4747 62.4911 9.19255 81.3965 5.43204C100.302 1.67152 119.898 3.60156 137.706 10.9781C155.515 18.3546 170.736 30.8463 181.445 46.8735C192.154 62.9007 197.87 81.7436 197.87 101.019C197.841 126.858 187.564 151.631 169.293 169.902C151.022 188.173 126.249 198.45 100.41 198.479ZM100.41 4.55937C81.3321 4.55937 62.6825 10.2166 46.8197 20.8158C30.957 31.415 18.5935 46.48 11.2926 64.1057C3.99181 81.7315 2.08157 101.126 5.8035 119.838C9.52543 138.549 18.7124 155.737 32.2025 169.227C45.6927 182.717 62.8803 191.904 81.5917 195.626C100.303 199.348 119.698 197.438 137.324 190.137C154.95 182.836 170.015 170.472 180.614 154.61C191.213 138.747 196.87 120.097 196.87 101.019C196.841 75.4455 186.669 50.9275 168.585 32.844C150.502 14.7606 125.984 4.58848 100.41 4.55937Z" fill="url(#paint1_linear_43_28)"/>
<path d="M100.41 193.639C82.0916 193.639 64.1844 188.207 48.9532 178.03C33.7219 167.853 21.8506 153.388 14.8404 136.464C7.83018 119.539 5.99598 100.917 9.56974 82.9502C13.1435 64.9837 21.9647 48.4804 34.9179 35.5272C47.871 22.5741 64.3743 13.7529 82.3409 10.1791C100.307 6.60536 118.93 8.43954 135.854 15.4497C152.778 22.4599 167.244 34.3313 177.421 49.5625C187.598 64.7938 193.03 82.701 193.03 101.019C193.004 125.576 183.237 149.119 165.873 166.482C148.509 183.846 124.966 193.613 100.41 193.639ZM100.41 9.40946C82.2889 9.40946 64.5748 14.7831 49.5077 24.8509C34.4407 34.9187 22.6974 49.2284 15.7632 65.9703C8.82902 82.7123 7.01532 101.135 10.5513 118.907C14.0873 136.68 22.8142 153.005 35.6285 165.818C48.4427 178.631 64.7688 187.356 82.542 190.89C100.315 194.424 118.737 192.608 135.478 185.672C152.22 178.736 166.528 166.992 176.594 151.924C186.66 136.855 192.032 119.141 192.03 101.019C192.001 76.7302 182.338 53.4442 165.162 36.27C147.986 19.0958 124.699 9.43592 100.41 9.40946Z" fill="url(#paint2_linear_43_28)"/>
<path d="M100.41 187.529C83.3 187.529 66.5742 182.456 52.3477 172.95C38.1212 163.444 27.033 149.933 20.4853 134.125C13.9376 118.318 12.2243 100.923 15.5623 84.142C18.9003 67.3607 27.1397 51.9461 39.2383 39.8475C51.337 27.7489 66.7515 19.5096 83.5328 16.1716C100.314 12.8336 117.708 14.5468 133.516 21.0945C149.324 27.6422 162.835 38.7304 172.341 52.9569C181.846 67.1834 186.92 83.9093 186.92 101.019C186.894 123.955 177.771 145.944 161.553 162.162C145.335 178.38 123.346 187.503 100.41 187.529ZM100.41 15.5293C83.4978 15.5293 66.9653 20.5444 52.9033 29.9404C38.8412 39.3363 27.8812 52.6911 21.4091 68.3161C14.9371 83.941 13.2437 101.134 16.5431 117.721C19.8426 134.309 27.9866 149.545 39.9454 161.504C51.9042 173.463 67.1406 181.607 83.728 184.906C100.315 188.206 117.508 186.512 133.133 180.04C148.758 173.568 162.113 162.608 171.509 148.546C180.905 134.484 185.92 117.952 185.92 101.039C185.899 78.3653 176.884 56.6257 160.853 40.5909C144.822 24.5561 123.084 15.5358 100.41 15.5093V15.5293Z" fill="url(#paint3_linear_43_28)"/>
<path d="M100.41 176.709C58.19 176.709 23.8401 142.709 23.8401 101.019C23.8401 59.3294 58.19 25.3394 100.41 25.3394C142.63 25.3394 176.99 59.2894 176.99 101.019C176.99 142.749 142.64 176.709 100.41 176.709ZM100.41 26.3394C58.74 26.3394 24.8401 59.8394 24.8401 101.019C24.8401 142.199 58.74 175.709 100.41 175.709C142.08 175.709 175.99 142.199 175.99 101.019C175.99 59.8394 142.09 26.3394 100.41 26.3394Z" fill="url(#paint4_linear_43_28)"/>
<path d="M100.41 165.509C87.6551 165.509 75.1867 161.727 64.5813 154.641C53.976 147.555 45.7102 137.483 40.8291 125.699C35.948 113.915 34.6709 100.948 37.1592 88.438C39.6476 75.9281 45.7897 64.4371 54.8087 55.418C63.8278 46.3989 75.3188 40.2568 87.8286 37.7685C100.338 35.2801 113.305 36.5572 125.089 41.4383C136.873 46.3194 146.945 54.5853 154.032 65.1906C161.118 75.7959 164.9 88.2644 164.9 101.019C164.882 118.117 158.081 134.51 145.991 146.6C133.901 158.69 117.508 165.491 100.41 165.509ZM100.41 37.5093C87.8529 37.5093 75.5778 41.233 65.1369 48.2093C54.696 55.1857 46.5584 65.1015 41.753 76.7028C36.9476 88.304 35.6903 101.07 38.14 113.386C40.5898 125.701 46.6367 137.014 55.5159 145.894C64.3951 154.773 75.708 160.82 88.0238 163.269C100.34 165.719 113.105 164.462 124.707 159.656C136.308 154.851 146.224 146.713 153.2 136.272C160.176 125.832 163.9 113.556 163.9 100.999C163.874 84.1707 157.175 68.0392 145.274 56.1414C133.372 44.2436 117.239 37.5505 100.41 37.5293V37.5093Z" fill="url(#paint5_linear_43_28)"/>
<path d="M100.41 150.589C90.606 150.589 81.0222 147.682 72.8705 142.235C64.7187 136.789 58.3651 129.047 54.6133 119.989C50.8614 110.931 49.8798 100.964 51.7925 91.3488C53.7051 81.7332 58.4263 72.9007 65.3588 65.9682C72.2912 59.0357 81.1237 54.3146 90.7394 52.402C100.355 50.4893 110.322 51.4709 119.38 55.2228C128.437 58.9746 136.179 65.3281 141.626 73.4799C147.073 81.6316 149.98 91.2155 149.98 101.019C149.964 114.161 144.736 126.76 135.444 136.053C126.151 145.346 113.552 150.574 100.41 150.589ZM100.41 52.4495C90.8038 52.4495 81.4133 55.2981 73.426 60.635C65.4387 65.9719 59.2134 73.5575 55.5372 82.4325C51.8611 91.3075 50.8992 101.073 52.7733 110.495C54.6474 119.917 59.2733 128.571 66.0659 135.364C72.8585 142.156 81.5128 146.782 90.9344 148.656C100.356 150.53 110.122 149.568 118.997 145.892C127.872 142.216 135.458 135.991 140.795 128.004C146.131 120.016 148.98 110.626 148.98 101.019C148.964 88.1428 143.842 75.798 134.737 66.6928C125.631 57.5876 113.287 52.4654 100.41 52.4495Z" fill="url(#paint6_linear_43_28)"/>
<path d="M100.41 134.54C93.7804 134.54 87.2997 132.574 81.7874 128.89C76.275 125.207 71.9787 119.972 69.4417 113.847C66.9046 107.722 66.2407 100.982 67.5341 94.4801C68.8275 87.9779 72.0199 82.0052 76.7078 77.3173C81.3956 72.6295 87.3684 69.437 93.8706 68.1436C100.373 66.8502 107.113 67.514 113.238 70.0511C119.363 72.5881 124.598 76.8845 128.281 82.3968C131.964 87.9092 133.93 94.3899 133.93 101.02C133.919 109.906 130.385 118.426 124.101 124.71C117.817 130.994 109.297 134.529 100.41 134.54ZM100.41 68.5395C93.9782 68.5395 87.6908 70.4468 82.3429 74.0201C76.995 77.5935 72.8269 82.6724 70.3655 88.6147C67.9041 94.5569 67.2601 101.096 68.5149 107.404C69.7697 113.712 72.8669 119.507 77.4149 124.055C81.9629 128.603 87.7574 131.7 94.0657 132.955C100.374 134.209 106.913 133.565 112.855 131.104C118.797 128.643 123.876 124.475 127.449 119.127C131.023 113.779 132.93 107.491 132.93 101.06C132.93 92.431 129.505 84.1553 123.408 78.0503C117.31 71.9452 109.039 68.5101 100.41 68.4995V68.5395Z" fill="url(#paint7_linear_43_28)"/>
<path d="M100.41 118.5C96.9532 118.498 93.5746 117.471 90.7014 115.549C87.8281 113.627 85.5891 110.896 84.2676 107.702C82.9462 104.508 82.6015 100.993 83.277 97.6032C83.9526 94.2131 85.6183 91.0994 88.0633 88.6558C90.5083 86.2122 93.623 84.5484 97.0135 83.8747C100.404 83.201 103.918 83.5478 107.112 84.8711C110.305 86.1944 113.034 88.4349 114.955 91.3092C116.875 94.1836 117.9 97.5628 117.9 101.02C117.895 105.656 116.05 110.1 112.771 113.377C109.492 116.655 105.046 118.497 100.41 118.5ZM100.41 84.4995C97.151 84.5015 93.9657 85.4697 91.2569 87.2818C88.5481 89.0938 86.4374 91.6683 85.1916 94.6798C83.9458 97.6913 83.6209 101.005 84.2579 104.201C84.8949 107.397 86.4653 110.332 88.7705 112.636C91.0756 114.94 94.012 116.509 97.2086 117.144C100.405 117.779 103.718 117.452 106.729 116.204C109.74 114.956 112.313 112.844 114.123 110.134C115.934 107.424 116.9 104.239 116.9 100.98C116.887 96.6148 115.144 92.4333 112.053 89.3517C108.962 86.27 104.775 84.5395 100.41 84.5395V84.4995Z" fill="url(#paint8_linear_43_28)"/>
<path d="M100.41 113.339C97.9734 113.339 95.5915 112.617 93.5655 111.263C91.5395 109.909 89.9603 107.985 89.0279 105.734C88.0954 103.483 87.8515 101.006 88.3268 98.616C88.8022 96.2261 89.9755 94.0309 91.6985 92.3079C93.4215 90.5849 95.6167 89.4116 98.0065 88.9362C100.396 88.4608 102.874 88.7048 105.125 89.6373C107.376 90.5697 109.3 92.1488 110.654 94.1748C112.007 96.2009 112.73 98.5828 112.73 101.019C112.727 104.286 111.429 107.418 109.119 109.728C106.809 112.038 103.677 113.337 100.41 113.339ZM100.41 89.6995C98.1712 89.6995 95.9826 90.3634 94.121 91.6072C92.2595 92.8511 90.8086 94.619 89.9518 96.6875C89.095 98.7559 88.8708 101.032 89.3075 103.228C89.7443 105.424 90.8226 107.441 92.4057 109.024C93.9888 110.607 96.0058 111.685 98.2017 112.122C100.398 112.559 102.674 112.335 104.742 111.478C106.811 110.621 108.578 109.17 109.822 107.309C111.066 105.447 111.73 103.258 111.73 101.019C111.727 98.018 110.534 95.1403 108.412 93.018C106.289 90.8956 103.412 89.7021 100.41 89.6995Z" fill="url(#paint9_linear_43_28)"/>
<path d="M50.8953 14.2505L50.0293 14.7505L149.934 187.791L150.8 187.291L50.8953 14.2505Z" fill="url(#paint10_linear_43_28)"/>
<path d="M30.1269 30.0287L29.4198 30.7358L170.707 172.023L171.414 171.316L30.1269 30.0287Z" fill="url(#paint11_linear_43_28)"/>
<path d="M14.141 50.644L13.641 51.51L186.682 151.415L187.182 150.549L14.141 50.644Z" fill="url(#paint12_linear_43_28)"/>
<path d="M4.04153 74.6791L3.78271 75.645L196.784 127.36L197.043 126.394L4.04153 74.6791Z" fill="url(#paint13_linear_43_28)"/>
<path d="M200.32 100.52H0.51001V101.52H200.32V100.52Z" fill="url(#paint14_linear_43_28)"/>
<path d="M196.763 74.613L3.80676 126.496L4.06642 127.462L197.023 75.5787L196.763 74.613Z" fill="url(#paint15_linear_43_28)"/>
<path d="M186.734 50.7631L13.6763 150.638L14.1761 151.504L187.234 51.6292L186.734 50.7631Z" fill="url(#paint16_linear_43_28)"/>
<path d="M170.647 29.9415L29.3597 171.229L30.0668 171.936L171.354 30.6486L170.647 29.9415Z" fill="url(#paint17_linear_43_28)"/>
<path d="M149.895 14.2118L49.9294 187.218L50.7953 187.718L150.761 14.7121L149.895 14.2118Z" fill="url(#paint18_linear_43_28)"/>
<path d="M125.856 4.42873L74.1752 197.439L75.1411 197.698L126.822 4.68738L125.856 4.42873Z" fill="url(#paint19_linear_43_28)"/>
<path d="M100.91 1.11938H99.91V200.929H100.91V1.11938Z" fill="url(#paint20_linear_43_28)"/>
<path d="M75.0323 4.39597L74.0664 4.65479L125.781 197.656L126.747 197.398L75.0323 4.39597Z" fill="url(#paint21_linear_43_28)"/>
<path d="M200.32 100.52H0.51001V101.52H200.32V100.52Z" fill="url(#paint22_linear_43_28)"/>
<defs>
<linearGradient id="paint0_linear_43_28" x1="100.41" y1="0.609375" x2="100.41" y2="201.429" gradientUnits="userSpaceOnUse">
<stop stop-color="#02B377"/>
<stop offset="1" stop-color="#02B377" stop-opacity="0"/>
</linearGradient>
<linearGradient id="paint1_linear_43_28" x1="100.41" y1="3.55933" x2="100.41" y2="198.479" gradientUnits="userSpaceOnUse">
<stop stop-color="#02B377"/>
<stop offset="1" stop-color="#02B377" stop-opacity="0"/>
</linearGradient>
<linearGradient id="paint2_linear_43_28" x1="100.41" y1="8.39941" x2="100.41" y2="193.639" gradientUnits="userSpaceOnUse">
<stop stop-color="#02B377"/>
<stop offset="1" stop-color="#02B377" stop-opacity="0"/>
</linearGradient>
<linearGradient id="paint3_linear_43_28" x1="100.41" y1="14.5093" x2="100.41" y2="187.529" gradientUnits="userSpaceOnUse">
<stop stop-color="#02B377"/>
<stop offset="1" stop-color="#02B377" stop-opacity="0"/>
</linearGradient>
<linearGradient id="paint4_linear_43_28" x1="100.415" y1="25.3394" x2="100.415" y2="176.709" gradientUnits="userSpaceOnUse">
<stop stop-color="#02B377"/>
<stop offset="1" stop-color="#02B377" stop-opacity="0"/>
</linearGradient>
<linearGradient id="paint5_linear_43_28" x1="100.41" y1="36.5293" x2="100.41" y2="165.509" gradientUnits="userSpaceOnUse">
<stop stop-color="#02B377"/>
<stop offset="1" stop-color="#02B377" stop-opacity="0"/>
</linearGradient>
<linearGradient id="paint6_linear_43_28" x1="100.41" y1="51.4495" x2="100.41" y2="150.589" gradientUnits="userSpaceOnUse">
<stop stop-color="#02B377"/>
<stop offset="1" stop-color="#02B377" stop-opacity="0"/>
</linearGradient>
<linearGradient id="paint7_linear_43_28" x1="100.41" y1="67.4995" x2="100.41" y2="134.54" gradientUnits="userSpaceOnUse">
<stop stop-color="#02B377"/>
<stop offset="1" stop-color="#02B377" stop-opacity="0"/>
</linearGradient>
<linearGradient id="paint8_linear_43_28" x1="100.42" y1="83.5396" x2="100.42" y2="118.5" gradientUnits="userSpaceOnUse">
<stop stop-color="#02B377"/>
<stop offset="1" stop-color="#02B377" stop-opacity="0"/>
</linearGradient>
<linearGradient id="paint9_linear_43_28" x1="100.41" y1="88.6995" x2="100.41" y2="113.339" gradientUnits="userSpaceOnUse">
<stop stop-color="#02B377"/>
<stop offset="1" stop-color="#02B377" stop-opacity="0"/>
</linearGradient>
<linearGradient id="paint10_linear_43_28" x1="50.4623" y1="14.5005" x2="150.367" y2="187.541" gradientUnits="userSpaceOnUse">
<stop stop-color="#02B377"/>
<stop offset="1" stop-color="#02B377" stop-opacity="0"/>
</linearGradient>
<linearGradient id="paint11_linear_43_28" x1="29.7734" y1="30.3823" x2="171.06" y2="171.669" gradientUnits="userSpaceOnUse">
<stop stop-color="#02B377"/>
<stop offset="1" stop-color="#02B377" stop-opacity="0"/>
</linearGradient>
<linearGradient id="paint12_linear_43_28" x1="13.891" y1="51.077" x2="186.932" y2="150.982" gradientUnits="userSpaceOnUse">
<stop stop-color="#02B377"/>
<stop offset="1" stop-color="#02B377" stop-opacity="0"/>
</linearGradient>
<linearGradient id="paint13_linear_43_28" x1="3.91212" y1="75.1621" x2="196.914" y2="126.877" gradientUnits="userSpaceOnUse">
<stop stop-color="#02B377"/>
<stop offset="1" stop-color="#02B377" stop-opacity="0"/>
</linearGradient>
<linearGradient id="paint14_linear_43_28" x1="100.415" y1="100.52" x2="100.415" y2="101.52" gradientUnits="userSpaceOnUse">
<stop stop-color="#02B377"/>
<stop offset="1" stop-color="#02B377" stop-opacity="0"/>
</linearGradient>
<linearGradient id="paint15_linear_43_28" x1="100.285" y1="100.555" x2="100.545" y2="101.52" gradientUnits="userSpaceOnUse">
<stop stop-color="#02B377"/>
<stop offset="1" stop-color="#02B377" stop-opacity="0"/>
</linearGradient>
<linearGradient id="paint16_linear_43_28" x1="100.205" y1="100.701" x2="100.705" y2="101.567" gradientUnits="userSpaceOnUse">
<stop stop-color="#02B377"/>
<stop offset="1" stop-color="#02B377" stop-opacity="0"/>
</linearGradient>
<linearGradient id="paint17_linear_43_28" x1="100.003" y1="100.585" x2="100.71" y2="101.292" gradientUnits="userSpaceOnUse">
<stop stop-color="#02B377"/>
<stop offset="1" stop-color="#02B377" stop-opacity="0"/>
</linearGradient>
<linearGradient id="paint18_linear_43_28" x1="99.9122" y1="100.715" x2="100.778" y2="101.215" gradientUnits="userSpaceOnUse">
<stop stop-color="#02B377"/>
<stop offset="1" stop-color="#02B377" stop-opacity="0"/>
</linearGradient>
<linearGradient id="paint19_linear_43_28" x1="100.016" y1="100.934" x2="100.982" y2="101.193" gradientUnits="userSpaceOnUse">
<stop stop-color="#02B377"/>
<stop offset="1" stop-color="#02B377" stop-opacity="0"/>
</linearGradient>
<linearGradient id="paint20_linear_43_28" x1="100.41" y1="1.11938" x2="100.41" y2="200.929" gradientUnits="userSpaceOnUse">
<stop stop-color="#02B377"/>
<stop offset="1" stop-color="#02B377" stop-opacity="0"/>
</linearGradient>
<linearGradient id="paint21_linear_43_28" x1="74.5494" y1="4.52538" x2="126.264" y2="197.527" gradientUnits="userSpaceOnUse">
<stop stop-color="#02B377"/>
<stop offset="1" stop-color="#02B377" stop-opacity="0"/>
</linearGradient>
<linearGradient id="paint22_linear_43_28" x1="100.415" y1="100.52" x2="100.415" y2="101.52" gradientUnits="userSpaceOnUse">
<stop stop-color="#02B377"/>
<stop offset="1" stop-color="#02B377" stop-opacity="0"/>
</linearGradient>
</defs>
</svg>
