<svg width="227" height="228" viewBox="0 0 227 228" fill="none" xmlns="http://www.w3.org/2000/svg">
<path d="M155.5 114.109C155.5 145.408 150.749 173.72 143.084 194.191C139.251 204.428 134.698 212.677 129.669 218.359C124.638 224.041 119.173 227.109 113.5 227.109C107.827 227.109 102.362 224.041 97.3315 218.359C92.3018 212.677 87.7494 204.428 83.9162 194.191C76.2511 173.72 71.5 145.408 71.5 114.109C71.5 82.8112 76.2511 54.4983 83.9162 34.0281C87.7494 23.7911 92.3018 15.5415 97.3315 9.8602C102.362 4.17823 107.827 1.10938 113.5 1.10938C119.173 1.10938 124.638 4.17823 129.669 9.8602C134.698 15.5415 139.251 23.7911 143.084 34.0281C150.749 54.4983 155.5 82.8112 155.5 114.109Z" stroke="url(#paint0_linear_43_56)"/>
<path d="M113.5 72.1094C144.798 72.1094 173.111 76.8605 193.581 84.5256C203.818 88.3588 212.068 92.9112 217.749 97.9408C223.431 102.971 226.5 108.436 226.5 114.109C226.5 119.783 223.431 125.248 217.749 130.278C212.068 135.308 203.818 139.86 193.581 143.693C173.111 151.358 144.798 156.109 113.5 156.109C82.2019 156.109 53.889 151.358 33.4187 143.693C23.1817 139.86 14.9322 135.308 9.25082 130.278C3.56886 125.248 0.5 119.783 0.5 114.109C0.5 108.436 3.56886 102.971 9.25082 97.9408C14.9322 92.9112 23.1817 88.3588 33.4187 84.5256C53.889 76.8605 82.2019 72.1094 113.5 72.1094Z" stroke="url(#paint1_linear_43_56)"/>
<path d="M143.159 84.45C165.229 106.52 181.839 129.84 190.86 149.687C195.372 159.612 197.974 168.644 198.428 176.202C198.883 183.761 197.187 189.784 193.181 193.79C189.174 197.797 183.151 199.492 175.593 199.038C168.035 198.583 159.003 195.981 149.077 191.469C129.23 182.448 105.91 165.838 83.8406 143.769C61.7709 121.699 45.1614 98.3792 36.1399 78.5319C31.6284 68.6065 29.0261 59.5747 28.5718 52.0168C28.1174 44.4582 29.8126 38.435 33.8191 34.4285C37.8256 30.422 43.8488 28.7268 51.4074 29.1811C58.9653 29.6354 67.9971 32.2378 77.9225 36.7493C97.7698 45.7708 121.09 62.3803 143.159 84.45Z" stroke="url(#paint2_linear_43_56)"/>
<path d="M33.8191 193.79C29.8126 189.784 28.1174 183.761 28.5718 176.202C29.0261 168.644 31.6284 159.612 36.1399 149.687C45.1614 129.84 61.7709 106.52 83.8406 84.45C105.91 62.3803 129.23 45.7708 149.077 36.7493C159.003 32.2378 168.035 29.6354 175.593 29.1811C183.151 28.7268 189.174 30.422 193.181 34.4285C197.187 38.435 198.883 44.4582 198.428 52.0168C197.974 59.5747 195.372 68.6065 190.86 78.5319C181.839 98.3792 165.229 121.699 143.159 143.769C121.09 165.838 97.7698 182.448 77.9225 191.469C67.9971 195.981 58.9653 198.583 51.4074 199.038C43.8488 199.492 37.8256 197.797 33.8191 193.79Z" stroke="url(#paint3_linear_43_56)"/>
<defs>
<linearGradient id="paint0_linear_43_56" x1="113.5" y1="0.609375" x2="113.5" y2="227.609" gradientUnits="userSpaceOnUse">
<stop stop-color="#02B377"/>
<stop offset="1" stop-color="white" stop-opacity="0"/>
</linearGradient>
<linearGradient id="paint1_linear_43_56" x1="0" y1="114.109" x2="227" y2="114.109" gradientUnits="userSpaceOnUse">
<stop stop-color="#02B377"/>
<stop offset="1" stop-color="white" stop-opacity="0"/>
</linearGradient>
<linearGradient id="paint2_linear_43_56" x1="33.4655" y1="34.075" x2="193.534" y2="194.144" gradientUnits="userSpaceOnUse">
<stop stop-color="#02B377"/>
<stop offset="1" stop-color="white" stop-opacity="0"/>
</linearGradient>
<linearGradient id="paint3_linear_43_56" x1="193.535" y1="34.075" x2="33.4658" y2="194.144" gradientUnits="userSpaceOnUse">
<stop stop-color="#02B377"/>
<stop offset="1" stop-color="white" stop-opacity="0"/>
</linearGradient>
</defs>
</svg>
