<svg width="234" height="230" viewBox="0 0 234 230" fill="none" xmlns="http://www.w3.org/2000/svg">
<path d="M133.464 213.357C188.654 213.357 233.394 168.616 233.394 113.427C233.394 58.2368 188.654 13.4966 133.464 13.4966C78.2741 13.4966 33.5339 58.2368 33.5339 113.427C33.5339 168.616 78.2741 213.357 133.464 213.357Z" stroke="url(#paint0_linear_43_57)" stroke-miterlimit="10"/>
<path d="M127.714 207.597C179.723 207.597 221.884 165.435 221.884 113.427C221.884 61.4179 179.723 19.2566 127.714 19.2566C75.7052 19.2566 33.5439 61.4179 33.5439 113.427C33.5439 165.435 75.7052 207.597 127.714 207.597Z" stroke="url(#paint1_linear_43_57)" stroke-miterlimit="10"/>
<path d="M121.604 202.216C170.238 202.216 209.664 162.791 209.664 114.156C209.664 65.5223 170.238 26.0964 121.604 26.0964C72.9697 26.0964 33.5439 65.5223 33.5439 114.156C33.5439 162.791 72.9697 202.216 121.604 202.216Z" stroke="url(#paint2_linear_43_57)" stroke-miterlimit="10"/>
<path d="M171.742 172.351C203.359 140.735 203.359 89.4735 171.742 57.8567C140.125 26.2398 88.8642 26.2398 57.2474 57.8566C25.6305 89.4735 25.6305 140.735 57.2474 172.351C88.8642 203.968 140.125 203.968 171.742 172.351Z" stroke="url(#paint3_linear_43_57)" stroke-miterlimit="10"/>
<path d="M107.354 188.897C148.118 188.897 181.164 155.851 181.164 115.087C181.164 74.3225 148.118 41.2766 107.354 41.2766C66.5897 41.2766 33.5439 74.3225 33.5439 115.087C33.5439 155.851 66.5897 188.897 107.354 188.897Z" stroke="url(#paint4_linear_43_57)" stroke-miterlimit="10"/>
<path d="M100.904 180.157C138.111 180.157 168.274 150.28 168.274 113.427C168.274 76.5726 138.111 46.6965 100.904 46.6965C63.6964 46.6965 33.5339 76.5726 33.5339 113.427C33.5339 150.28 63.6964 180.157 100.904 180.157Z" stroke="url(#paint5_linear_43_57)" stroke-miterlimit="10"/>
<path d="M133.984 148.296C152.916 148.296 168.264 133.092 168.264 114.336C168.264 95.5809 152.916 80.3765 133.984 80.3765C115.052 80.3765 99.7039 95.5809 99.7039 114.336C99.7039 133.092 115.052 148.296 133.984 148.296Z" stroke="url(#paint6_linear_43_57)" stroke-miterlimit="10"/>
<path d="M139.944 142.397C155.59 142.397 168.274 129.834 168.274 114.337C168.274 98.8395 155.59 86.2766 139.944 86.2766C124.298 86.2766 111.614 98.8395 111.614 114.337C111.614 129.834 124.298 142.397 139.944 142.397Z" stroke="url(#paint7_linear_43_57)" stroke-miterlimit="10"/>
<path d="M145.854 135.627C158.231 135.627 168.264 125.687 168.264 113.427C168.264 101.166 158.231 91.2266 145.854 91.2266C133.477 91.2266 123.444 101.166 123.444 113.427C123.444 125.687 133.477 135.627 145.854 135.627Z" stroke="url(#paint8_linear_43_57)" stroke-miterlimit="10"/>
<path d="M127.864 154.356C150.176 154.356 168.264 136.439 168.264 114.336C168.264 92.234 150.176 74.3164 127.864 74.3164C105.552 74.3164 87.4639 92.234 87.4639 114.336C87.4639 136.439 105.552 154.356 127.864 154.356Z" stroke="url(#paint9_linear_43_57)" stroke-miterlimit="10"/>
<path d="M122.514 159.657C147.781 159.657 168.264 139.366 168.264 114.337C168.264 89.307 147.781 69.0166 122.514 69.0166C97.2468 69.0166 76.7639 89.307 76.7639 114.337C76.7639 139.366 97.2468 159.657 122.514 159.657Z" stroke="url(#paint10_linear_43_57)" stroke-miterlimit="10"/>
<path d="M117.104 165.016C145.364 165.016 168.274 142.326 168.274 114.336C168.274 86.3467 145.364 63.6565 117.104 63.6565C88.8435 63.6565 65.9339 86.3467 65.9339 114.336C65.9339 142.326 88.8435 165.016 117.104 165.016Z" stroke="url(#paint11_linear_43_57)" stroke-miterlimit="10"/>
<path d="M111.284 170.786C142.753 170.786 168.264 145.513 168.264 114.336C168.264 83.16 142.753 57.8865 111.284 57.8865C79.8147 57.8865 54.3039 83.16 54.3039 114.336C54.3039 145.513 79.8147 170.786 111.284 170.786Z" stroke="url(#paint12_linear_43_57)" stroke-miterlimit="10"/>
<path d="M105.384 176.407C140.117 176.407 168.274 148.514 168.274 114.107C168.274 79.6993 140.117 51.8066 105.384 51.8066C70.6507 51.8066 42.4939 79.6993 42.4939 114.107C42.4939 148.514 70.6507 176.407 105.384 176.407Z" stroke="url(#paint13_linear_43_57)" stroke-miterlimit="10"/>
<defs>
<linearGradient id="paint0_linear_43_57" x1="133.464" y1="13.4966" x2="133.464" y2="213.357" gradientUnits="userSpaceOnUse">
<stop stop-color="#02B377"/>
<stop offset="1" stop-color="#02B377" stop-opacity="0"/>
</linearGradient>
<linearGradient id="paint1_linear_43_57" x1="127.714" y1="19.2566" x2="127.714" y2="207.597" gradientUnits="userSpaceOnUse">
<stop stop-color="#02B377"/>
<stop offset="1" stop-color="#02B377" stop-opacity="0"/>
</linearGradient>
<linearGradient id="paint2_linear_43_57" x1="121.604" y1="26.0964" x2="121.604" y2="202.216" gradientUnits="userSpaceOnUse">
<stop stop-color="#02B377"/>
<stop offset="1" stop-color="#02B377" stop-opacity="0"/>
</linearGradient>
<linearGradient id="paint3_linear_43_57" x1="57.2474" y1="57.8566" x2="171.742" y2="172.351" gradientUnits="userSpaceOnUse">
<stop stop-color="#02B377"/>
<stop offset="1" stop-color="#02B377" stop-opacity="0"/>
</linearGradient>
<linearGradient id="paint4_linear_43_57" x1="107.354" y1="41.2766" x2="107.354" y2="188.897" gradientUnits="userSpaceOnUse">
<stop stop-color="#02B377"/>
<stop offset="1" stop-color="#02B377" stop-opacity="0"/>
</linearGradient>
<linearGradient id="paint5_linear_43_57" x1="100.904" y1="46.6965" x2="100.904" y2="180.157" gradientUnits="userSpaceOnUse">
<stop stop-color="#02B377"/>
<stop offset="1" stop-color="#02B377" stop-opacity="0"/>
</linearGradient>
<linearGradient id="paint6_linear_43_57" x1="133.984" y1="80.3765" x2="133.984" y2="148.296" gradientUnits="userSpaceOnUse">
<stop stop-color="#02B377"/>
<stop offset="1" stop-color="#02B377" stop-opacity="0"/>
</linearGradient>
<linearGradient id="paint7_linear_43_57" x1="139.944" y1="86.2766" x2="139.944" y2="142.397" gradientUnits="userSpaceOnUse">
<stop stop-color="#02B377"/>
<stop offset="1" stop-color="#02B377" stop-opacity="0"/>
</linearGradient>
<linearGradient id="paint8_linear_43_57" x1="145.854" y1="91.2266" x2="145.854" y2="135.627" gradientUnits="userSpaceOnUse">
<stop stop-color="#02B377"/>
<stop offset="1" stop-color="#02B377" stop-opacity="0"/>
</linearGradient>
<linearGradient id="paint9_linear_43_57" x1="127.864" y1="74.3164" x2="127.864" y2="154.356" gradientUnits="userSpaceOnUse">
<stop stop-color="#02B377"/>
<stop offset="1" stop-color="#02B377" stop-opacity="0"/>
</linearGradient>
<linearGradient id="paint10_linear_43_57" x1="122.514" y1="69.0166" x2="122.514" y2="159.657" gradientUnits="userSpaceOnUse">
<stop stop-color="#02B377"/>
<stop offset="1" stop-color="#02B377" stop-opacity="0"/>
</linearGradient>
<linearGradient id="paint11_linear_43_57" x1="117.104" y1="63.6565" x2="117.104" y2="165.016" gradientUnits="userSpaceOnUse">
<stop stop-color="#02B377"/>
<stop offset="1" stop-color="#02B377" stop-opacity="0"/>
</linearGradient>
<linearGradient id="paint12_linear_43_57" x1="111.284" y1="57.8865" x2="111.284" y2="170.786" gradientUnits="userSpaceOnUse">
<stop stop-color="#02B377"/>
<stop offset="1" stop-color="#02B377" stop-opacity="0"/>
</linearGradient>
<linearGradient id="paint13_linear_43_57" x1="105.384" y1="51.8066" x2="105.384" y2="176.407" gradientUnits="userSpaceOnUse">
<stop stop-color="#02B377"/>
<stop offset="1" stop-color="#02B377" stop-opacity="0"/>
</linearGradient>
</defs>
</svg>
