<svg width="405" height="469" viewBox="0 0 405 469" fill="none" xmlns="http://www.w3.org/2000/svg">
<path fill-rule="evenodd" clip-rule="evenodd" d="M278.437 59.1094V102.982L316.406 81.0449L405 117.607L392.344 212.67L354.374 234.608L392.344 256.547L405 351.609L316.406 388.172L278.437 366.234V410.109L202.5 468.609L126.563 410.109V366.234L88.5938 388.172L1.802e-05 351.609L12.6563 256.547L50.6263 234.608L12.6562 212.67L0 117.607L88.5937 81.0449L126.563 102.982V59.1094L202.5 0.609375L278.437 59.1094ZM132.891 62.2263L202.5 8.60126L272.109 62.2263V106.639L215.156 139.545L203.685 225.705L202.5 226.618L201.315 225.705L189.844 139.545L132.891 106.639V62.2263ZM56.9545 238.265L18.5176 260.473L6.91606 347.613L88.127 381.129L126.563 358.922V293.109L195.386 240.089L195.584 238.605L194.199 238.033L113.906 271.17L56.9545 238.265ZM185.9 234.608L114.373 264.127L63.2826 234.608L114.373 205.089L185.9 234.608ZM194.199 231.183L113.906 198.047L56.9544 230.952L18.5176 208.744L6.91605 121.603L88.127 88.0877L126.563 110.295V176.11L195.387 229.13L195.584 230.612L194.199 231.183ZM194.201 248.995L132.891 296.226V355.265L183.982 325.746L194.201 248.995ZM132.891 362.578L189.844 329.672L201.314 243.514L202.5 242.601L203.686 243.514L215.156 329.672L272.109 362.578V406.992L202.5 460.617L132.891 406.992V362.578ZM221.018 143.471L272.109 113.951V172.993L210.799 220.224L221.018 143.471ZM278.437 176.11L209.613 229.13L209.416 230.612L210.801 231.183L291.094 198.047L348.046 230.952L386.482 208.744L398.084 121.603L316.873 88.0877L278.437 110.295V176.11ZM291.094 271.17L210.801 238.033L209.416 238.605L209.614 240.089L278.437 293.109V358.922L316.873 381.129L398.084 347.613L386.482 260.473L348.046 238.265L291.094 271.17ZM290.627 264.127L341.717 234.608L290.627 205.089L219.1 234.608L290.627 264.127ZM210.799 248.995L272.109 296.226V355.265L221.018 325.746L210.799 248.995ZM183.982 143.471L194.201 220.224L132.891 172.993V113.951L183.982 143.471Z" fill="url(#paint0_radial_61_150)"/>
<defs>
<radialGradient id="paint0_radial_61_150" cx="0" cy="0" r="1" gradientUnits="userSpaceOnUse" gradientTransform="translate(202.5 234.61) rotate(56.5077) scale(338.295 292.887)">
<stop stop-color="#21C18B"/>
<stop offset="1" stop-color="#02B377" stop-opacity="0.22"/>
</radialGradient>
</defs>
</svg>
