<svg width="139" height="139" viewBox="0 0 139 139" fill="none" xmlns="http://www.w3.org/2000/svg">
<g id="Money" clip-path="url(#clip0_38_7)">
<path id="Vector" d="M55.0849 83.5717C56.2361 89.8635 61.9928 94.0524 67.9919 92.9547L80.2341 90.7148C85.4529 89.7599 88.8841 84.5451 87.8846 79.0824C86.7958 73.132 83.8271 71.5078 79.7241 70.8471L58.8189 67.6153C54.7159 66.9546 51.7472 65.3303 50.6585 59.3799C49.6589 53.9173 53.0902 48.7025 58.3089 47.7476L70.5511 45.5076C76.5503 44.41 82.307 48.5989 83.4582 54.8907M63.8829 39.9733L74.5919 98.5016" stroke="#02B377" stroke-width="1.5" stroke-linecap="round" stroke-linejoin="round"/>
<path id="Vector_2" d="M78.1616 118.011C105.099 113.082 122.94 87.2508 118.011 60.3131C113.082 33.3755 87.2508 15.5349 60.3132 20.4637C33.3755 25.3926 15.5349 51.2239 20.4637 78.1615C25.3926 105.099 51.2239 122.94 78.1616 118.011Z" stroke="#02B377" stroke-width="1.5" stroke-linecap="round" stroke-linejoin="round"/>
</g>
<defs>
<clipPath id="clip0_38_7">
<rect width="119" height="119" fill="white" transform="translate(0 21.4181) rotate(-10.3688)"/>
</clipPath>
</defs>
</svg>
